<?xml version="1.0" standalone="no"?>
<!DOCTYPE svg PUBLIC "-//W3C//DTD SVG 1.1//EN" "http://www.w3.org/Graphics/SVG/1.1/DTD/svg11.dtd" >
<svg xmlns="http://www.w3.org/2000/svg" xmlns:xlink="http://www.w3.org/1999/xlink" version="1.1">
<metadata>
Created by FontForge 20161003 at Sat Dec 22 08:24:25 2018
 By www-data
Copyright (c) 2009 by neogrey creative, Ivan Philipov. All rights reserved.
</metadata>
<defs>
<font id="Arkitech-Light" horiz-adv-x="1163" >
  <font-face 
    font-family="Arkitech"
    font-weight="300"
    font-stretch="normal"
    units-per-em="1000"
    panose-1="2 0 0 0 0 0 0 0 0 0"
    ascent="800"
    descent="-200"
    x-height="693"
    cap-height="693"
    bbox="-180 -255 2040 1024"
    underline-thickness="50"
    underline-position="-125"
    unicode-range="U+0020-FB02"
  />
<missing-glyph horiz-adv-x="375" 
 />
    <glyph glyph-name=".notdef" horiz-adv-x="375" 
 />
    <glyph glyph-name=".null" horiz-adv-x="0" 
 />
    <glyph glyph-name="nonmarkingreturn" horiz-adv-x="375" 
 />
    <glyph glyph-name="space" unicode=" " horiz-adv-x="375" 
 />
    <glyph glyph-name="numbersign" unicode="#" horiz-adv-x="755" 
d="M629 277h-123v-128h-76v128h-137v-128h-76v128h-123v76h123v136h-123v76h123v128h76v-128h137v128h76v-128h123v-76h-123v-136h123v-76zM430 353v136h-137v-136h137z" />
    <glyph glyph-name="dollar" unicode="$" horiz-adv-x="1030" 
d="M731 385q40 0 75 -15t61 -41t41 -61t15 -75t-15 -75t-41 -61.5t-61 -41.5t-75 -15h-62v-85h-76v85h-125v-85h-76v85h-292v76h292v233h-98q-39 0 -74 15t-61.5 41t-41.5 61t-15 75t15 75.5t41 61t61 40.5t75 15h98v84h76v-84h125v84h76v-84h246v-76h-246v-232h62zM468 617
v-232h125v232h-125zM392 385v232h-98q-25 0 -45.5 -9t-36 -24.5t-24.5 -36t-10 -44.5q4 -50 36 -84t80 -34h98zM593 76v233h-125v-233h125zM731 76q24 0 45 9t37 25t25 37t9 45t-9 45.5t-24.5 37.5t-37 25t-45.5 9h-62v-233h62z" />
    <glyph glyph-name="percent" unicode="%" horiz-adv-x="1134" 
d="M283 -11l457 719h85l-457 -719h-85zM903 0h-173q-31 0 -58 11.5t-47 31.5t-32 47.5t-12 58.5v15q0 31 11.5 58t32 47.5t47.5 32.5t58 12h173q31 0 58 -12t47 -32t32 -47.5t12 -58.5v-15q0 -30 -11.5 -57.5t-32 -47.5t-47.5 -32t-58 -12zM673 221q-11 -11 -17 -25.5
t-6 -31.5v-15q0 -33 23.5 -56.5t56.5 -23.5h173q33 0 56.5 23.5t23.5 56.5v15q0 34 -23.5 57.5t-56.5 23.5h-173q-33 0 -57 -24zM393 384h-173q-31 0 -58 11.5t-47 31.5t-32 47.5t-12 58.5v15q0 31 11.5 58t32 47.5t47.5 32.5t58 12h173q31 0 58 -12t47 -32t32 -47.5
t12 -58.5v-15q0 -30 -11.5 -57.5t-32 -47.5t-47.5 -32t-58 -12zM163 605q-11 -11 -17 -25.5t-6 -31.5v-15q0 -33 23.5 -56.5t56.5 -23.5h173q33 0 56.5 23.5t23.5 56.5v15q0 34 -23.5 57.5t-56.5 23.5h-173q-33 0 -57 -24z" />
    <glyph glyph-name="ampersand" unicode="&#x26;" horiz-adv-x="1134" 
d="M1097 398v-76h-101v-322h-696q-47 0 -85.5 15.5t-66.5 42.5t-43 63t-15 78q0 48 23.5 90t61.5 69l-21 15q-31 25 -47.5 61t-16.5 74q0 54 22 90t54 57t69.5 29.5t67.5 8.5h688v-76h-688q-25 0 -49.5 -7.5t-44 -21.5t-31.5 -34.5t-12 -46.5q0 -25 12 -45t31 -34.5t43 -22
t47 -7.5h798zM920 321h-622q-27 0 -51 -10t-42 -27t-28.5 -39t-10.5 -47q0 -9 6 -29t21 -41t40.5 -36.5t64.5 -15.5h622v245z" />
    <glyph glyph-name="quoteright" unicode="&#x2019;" horiz-adv-x="286" 
d="M80 477l61 223h85l-61 -223h-85z" />
    <glyph glyph-name="parenleft" unicode="(" horiz-adv-x="475" 
d="M240 -62q-39 0 -68.5 22.5t-46.5 54.5q-21 39 -21 89v486q0 33 9.5 62t26.5 52q18 23 44 37.5t56 14.5h108v-76h-108q-30 -3 -47 -36q-13 -24 -13 -54v-486q0 -20 6 -38t15 -29q17 -22 39 -23h108v-76h-108v0z" />
    <glyph glyph-name="parenright" unicode=")" horiz-adv-x="479" 
d="M212 -62h-108v76h108q22 1 39 23q9 11 15 29t6 38v486q0 30 -13 54q-17 33 -47 36h-108v76h108q30 0 56 -14.5t44 -37.5q17 -23 26.5 -52t9.5 -62v-486q0 -50 -21 -89q-17 -32 -46.5 -54.5t-68.5 -22.5z" />
    <glyph glyph-name="asterisk" unicode="*" horiz-adv-x="479" 
d="M420 521h-112l78 -79l-40 -41l-79 80v-111h-58v112l-79 -78l-41 40l79 79h-110v58h112l-79 79l41 41l80 -79v110h57v-112l79 79l41 -41l-80 -80h111v-57z" />
    <glyph glyph-name="plus" unicode="+" horiz-adv-x="685" 
d="M580 316h-217v-217h-64v217h-218v64h218v218h64v-218h217v-64z" />
    <glyph glyph-name="comma" unicode="," horiz-adv-x="280" 
d="M81 -85l29 175h86l-29 -175h-86z" />
    <glyph glyph-name="hyphen" unicode="-" horiz-adv-x="675" 
d="M80 386h515v-60h-515v60z" />
    <glyph glyph-name="hyphen" unicode="&#xad;" horiz-adv-x="675" 
d="M80 386h515v-60h-515v60z" />
    <glyph glyph-name="period" unicode="." horiz-adv-x="272" 
d="M100 0v90h86v-90h-86z" />
    <glyph glyph-name="slash" unicode="/" horiz-adv-x="594" 
d="M73 -51l407 799h76l-407 -799h-76z" />
    <glyph glyph-name="zero" unicode="0" horiz-adv-x="1202" 
d="M384 0q-59 0 -110.5 22.5t-90 61t-61 90t-22.5 110.5v127q0 58 22.5 110t61 90.5t90 61t110.5 22.5h447q59 0 111 -22.5t90.5 -61t61 -90.5t22.5 -110v-127q0 -59 -22.5 -110.5t-61 -90t-90.5 -61t-111 -22.5h-447zM176 411v-127q0 -43 16.5 -80.5t45 -66t66 -45
t80.5 -16.5h447q43 0 81 16.5t66.5 45t45 66t16.5 80.5v127q0 43 -16.5 80.5t-45 66t-66.5 45t-81 16.5h-447q-43 0 -80.5 -16.5t-66 -45t-45 -66t-16.5 -80.5z" />
    <glyph glyph-name="one" unicode="1" horiz-adv-x="422" 
d="M225 0v564q-3 24 -20 37.5t-41 15.5h-100v76h104q25 0 48.5 -11t41.5 -28t29.5 -39.5t12.5 -44.5v-570h-75z" />
    <glyph glyph-name="two" unicode="2" horiz-adv-x="1134" 
d="M99 0v165q0 31 12 57.5t33 47t48.5 34.5t57.5 19q81 13 179.5 28.5t196 30t183 27t140.5 20.5q11 2 21.5 6t18.5 13q5 5 8 16v99q-8 31 -30 42t-58 12h-648q-12 0 -30 -4t-29 -12q-14 -11 -19 -23t-6 -35v-89h-76v99q0 31 13 56.5t34.5 44t48.5 29t55 10.5h657
q29 0 58 -8.5t52 -24.5t38 -40t16 -54v-109q0 -27 -12 -46t-31 -31.5t-42.5 -20t-47.5 -10.5q-75 -11 -164.5 -23.5t-180.5 -26t-177 -27t-153 -25.5q-17 -3 -33 -10.5t-28.5 -18t-20.5 -24t-8 -27.5v-91h902v-76h-978z" />
    <glyph glyph-name="three" unicode="3" horiz-adv-x="1142" 
d="M1039 346q22 -14 27.5 -32t5.5 -39v-148q-2 -19 -10 -38.5t-25 -39.5q-25 -27 -56.5 -38t-72.5 -11h-641q-10 0 -24 1.5t-29 5t-30 9t-27 14.5q-57 42 -57 120v38h76v-38q1 -21 5 -33.5t18 -23.5q12 -10 27 -13t29 -4h653q20 0 33.5 3t22.5 8q12 7 22 17t10 27v143
q0 20 -15 27t-31 7h-715v77h716q13 0 29 8.5t16 25.5v140q-6 27 -30 42.5t-51 15.5h-659q-13 0 -28.5 -4t-26.5 -12q-15 -11 -20 -25.5t-5 -32.5v-38h-76v42q0 35 13.5 65t39.5 50q23 17 54 24t60 7h642q31 -1 59.5 -11t50.5 -27t36 -39.5t17 -48.5v-157q-1 -14 -3.5 -22.5
t-6.5 -15t-10 -12.5t-13 -14z" />
    <glyph glyph-name="four" unicode="4" horiz-adv-x="1106" 
d="M1024 693v-692h-76v257h-811q-26 0 -36 23q-2 4 -2 13q0 17 11 28l377 371h106l-365 -359h720v359h76z" />
    <glyph glyph-name="five" unicode="5" horiz-adv-x="1150" 
d="M1072 129q-3 -37 -21 -65q-16 -24 -49 -44t-94 -20h-641l-12.5 1t-31 5.5t-40 14t-40 26.5t-31 43t-12.5 64v74h76v-74q0 -27 13.5 -42.5t30.5 -23.5q19 -10 45 -12h643q14 0 29.5 3t28.5 10t21.5 17.5t8.5 25.5v172q0 5 -1 14t-5.5 18t-13.5 15.5t-24 6.5h-723
q-37 4 -65 23q-24 16 -44 49t-20 92v171h971v-76h-895v-95q0 -30 8 -47.5t18 -26.5t19 -11.5t11 -2.5h721q33 -2 59 -16q23 -12 41.5 -38.5t18.5 -75.5v-175z" />
    <glyph glyph-name="six" unicode="6" horiz-adv-x="1167" 
d="M100 566q2 19 10 38.5t25 39.5q25 27 56.5 38t72.5 11h654q23 0 48.5 -7t48.5 -22q57 -44 57 -121v-38h-76v38q0 16 -4.5 31t-18.5 26q-12 10 -28 13.5t-32 3.5h-649q-20 0 -33.5 -3t-21.5 -8q-30 -15 -33 -44v-176l12 4l12 4q5 1 9.5 1.5t9.5 0.5h735q3 0 21.5 -3.5
t40 -15.5t39 -36.5t17.5 -66.5v-128q0 -35 -14 -65t-40 -50q-23 -17 -50 -24t-56 -7h-648q-51 0 -83 15.5t-50 37.5t-24.5 44t-6.5 36v433zM176 136q7 -28 32 -44t57 -16h665q18 2 33.5 8t23.5 21q6 11 7.5 18.5t1.5 15.5v135q0 16 -5.5 25.5t-13 13.5t-14 5t-9.5 1h-740
q-3 0 -9 -0.5t-12.5 -5t-11.5 -13.5t-5 -26v-138z" />
    <glyph glyph-name="seven" unicode="7" horiz-adv-x="1054" 
d="M99 0l790 509q10 8 14.5 20.5t4.5 25.5q0 24 -15 41.5t-40 20.5h-753v76h760q56 -7 90 -46.5t34 -92.5q0 -31 -12.5 -59t-37.5 -48l-684 -447h-151z" />
    <glyph glyph-name="eight" unicode="8" horiz-adv-x="1142" 
d="M1072 410q-1 -14 -3.5 -22.5t-6.5 -15t-10 -12.5t-13 -14q22 -14 27.5 -32t5.5 -39v-148q-2 -19 -10 -38.5t-25 -39.5q-25 -27 -56.5 -38t-72.5 -11h-644q-41 0 -72.5 11t-56.5 38q-17 20 -25 39.5t-10 38.5v148q0 21 5.5 39t27.5 32q-7 8 -13 14t-10 12.5t-6.5 15
t-3.5 22.5v157q3 26 17 49t36 40t50 27t60 10h646q31 -1 59.5 -11t50.5 -27t36 -39.5t17 -48.5v-157zM996 274q0 20 -15 27t-31 7h-728q-16 0 -31 -7t-15 -27v-143q0 -17 10 -27t22 -17q9 -5 22.5 -8t33.5 -3h644q20 0 33.5 3t22.5 8q12 7 21.5 17t10.5 27v143zM996 559
q-6 27 -30 42.5t-51 15.5h-658q-27 0 -51 -15.5t-30 -42.5v-140q0 -17 15.5 -25.5t29.5 -8.5h732q13 0 27.5 8.5t15.5 25.5v140z" />
    <glyph glyph-name="nine" unicode="9" 
d="M1072 127q-2 -19 -10 -38.5t-25 -39.5q-25 -27 -56.5 -38t-72.5 -11h-654q-23 0 -48.5 7t-48.5 22q-57 43 -57 121v38h76v-38q0 -16 4.5 -31t18.5 -26q12 -10 28 -13.5t32 -3.5h649q20 0 33.5 3t21.5 8q30 15 33 44v176l-12 -4l-12 -4q-5 -1 -9.5 -1.5t-9.5 -0.5h-735
q-3 0 -21.5 3.5t-40 15.5t-39 36.5t-17.5 66.5v128q0 35 14 65t40 50q23 17 50 24t56 7h648q51 0 83 -15.5t50 -37.5t24.5 -44.5t6.5 -35.5v-433zM996 557q-7 28 -32 44t-57 16h-665q-28 0 -47 -19t-19 -44v-135q0 -17 5.5 -26t13 -13t14 -5t9.5 -1h740q3 0 9 0.5t12.5 5
t11.5 13.5t5 26v138z" />
    <glyph glyph-name="colon" unicode=":" horiz-adv-x="272" 
d="M180 124v-124h-80v124h80zM180 414v-124h-80v124h80z" />
    <glyph glyph-name="semicolon" unicode=";" horiz-adv-x="305" 
d="M123 291v89h92v-89h-92zM80 -114l55 203h65l-55 -203h-65z" />
    <glyph glyph-name="semicolon" unicode="&#x37e;" horiz-adv-x="305" 
d="M123 291v89h92v-89h-92zM80 -114l55 203h65l-55 -203h-65z" />
    <glyph glyph-name="less" unicode="&#x3c;" horiz-adv-x="625" 
d="M71 329v68l500 252v-86l-398 -200l401 -201l-3 -84z" />
    <glyph glyph-name="equal" unicode="=" horiz-adv-x="675" 
d="M80 276h505v-70h-505v70zM80 476h505v-70h-505v70z" />
    <glyph glyph-name="greater" unicode="&#x3e;" horiz-adv-x="617" 
d="M74 78l-3 84l401 201l-398 200v86l500 -252v-68z" />
    <glyph glyph-name="question" unicode="?" horiz-adv-x="1035" 
d="M886 545q0 4 -2 16t-10.5 24.5t-26.5 22t-49 9.5h-534q-32 0 -49.5 -9.5t-26 -22t-10.5 -25t-2 -17.5v-89h-76v89q0 53 20 83t46.5 45t52.5 18.5t39 3.5h540q6 0 20.5 -1t32.5 -6t37.5 -14t36 -26t27 -42t10.5 -61v-79q0 -42 -18.5 -64.5t-40.5 -33.5q-26 -13 -58 -15
h-289q-30 0 -46.5 -10.5t-24.5 -24.5t-9.5 -27t-1.5 -18v-98h-76v98q0 37 10 63.5t25.5 43.5t34.5 27t36.5 15t32 6t20.5 1h283q12 2 23 7q8 5 15.5 13t7.5 24v74zM399 0v113h76v-113h-76z" />
    <glyph glyph-name="at" unicode="@" horiz-adv-x="1102" 
d="M249 67q-31 0 -58 12t-47 32t-32 47t-12 59v326q0 32 12 59t32 47t47 32t58 12h593q30 0 57.5 -12t47.5 -32t32 -47t12 -59v-188q0 -45 -18 -79q-14 -28 -38.5 -49t-58.5 -21q-28 0 -51 12.5t-38 34.5q-30 44 -30 102v44q0 33 -24 57q-11 11 -25.5 17t-31.5 6h-285
q-34 0 -57 -23q-24 -24 -24 -57v-39q0 -33 24 -57q11 -11 25.5 -17t31.5 -6h326v-70h-326q-32 0 -59.5 12t-47.5 32t-31.5 47.5t-11.5 58.5v39q0 31 11.5 58.5t31.5 47.5t47.5 32t59.5 12h285q31 0 58.5 -12t47.5 -32t31.5 -47.5t11.5 -58.5v-44q1 -23 9 -44t26 -32
q5 -4 14 -4q7 0 14 4q18 13 25 31.5t9 44.5v188q0 35 -24 57q-11 11 -25.5 17t-30.5 6h-593q-33 0 -56 -23q-24 -22 -24 -57v-326q0 -35 24 -57q22 -24 56 -24h734v-69h-734z" />
    <glyph glyph-name="bracketleft" unicode="[" horiz-adv-x="411" 
d="M101 -75v843h196v-76h-120v-691h130v-76h-206z" />
    <glyph glyph-name="backslash" unicode="\" horiz-adv-x="578" 
d="M528 -50h-66l-412 800h66z" />
    <glyph glyph-name="bracketright" unicode="]" horiz-adv-x="442" 
d="M101 -75v76h130v691h-131v76h207v-843h-206z" />
    <glyph glyph-name="asciicircum" unicode="^" horiz-adv-x="652" 
d="M364 700l248 -461h-68l-218 411l-218 -411h-68l248 461h76z" />
    <glyph glyph-name="underscore" unicode="_" horiz-adv-x="1000" 
d="M0 -70h1000v-60h-1000v60z" />
    <glyph glyph-name="quoteleft" unicode="&#x2018;" horiz-adv-x="286" 
d="M141 477l-61 223h85l61 -223h-85z" />
    <glyph glyph-name="a" unicode="a" horiz-adv-x="1083" 
d="M322 0q-68 0 -123 34.5t-81 93.5q-18 39 -18 83q0 45 17.5 83.5t47.5 67t69.5 45t83.5 16.5h596v47q0 30 -12 57t-32.5 46.5t-47 31.5t-56.5 12h-503v76h503q46 0 87 -17.5t71 -48t48 -71t18 -86.5v-471zM240 323q-30 -19 -47 -48t-17 -64q0 -29 11.5 -53.5t31 -42.5
t45 -28.5t54.5 -10.5h596v271h-592q-23 0 -44 -6.5t-38 -17.5z" />
    <glyph glyph-name="b" unicode="b" horiz-adv-x="1105" 
d="M924 358q38 -27 61.5 -69t23.5 -90q0 -42 -17 -78t-46 -63t-67 -42.5t-80 -15.5h-699v693h696q30 0 59.5 -7t55 -21.5t46.5 -35t34 -47.5q18 -36 18 -74t-16.5 -74t-47.5 -61zM176 398h624q23 0 47 7.5t43 22t31 34.5t12 45q0 26 -12 46.5t-31.5 34.5t-44 21.5t-49.5 7.5
h-620v-219zM923 152q10 21 10 46t-10.5 47t-28.5 39t-42 27t-51 10h-625v-245h625q38 0 72.5 21t49.5 55z" />
    <glyph glyph-name="c" unicode="c" horiz-adv-x="1034" 
d="M184 83q-39 39 -61.5 90.5t-22.5 110.5v125q0 58 22.5 110t61 90.5t90.5 61t111 22.5h584v-76h-584q-43 0 -81 -16.5t-66.5 -45t-45 -66t-16.5 -80.5v-125q0 -42 16.5 -80t44.5 -66.5t65.5 -45t80.5 -16.5h586v-76h-584q-59 0 -111 22.5t-90 60.5z" />
    <glyph glyph-name="d" unicode="d" horiz-adv-x="1047" 
d="M100 693h619q59 0 110.5 -22.5t90 -61.5t61 -90.5t22.5 -109.5v-125q0 -59 -22.5 -110.5t-61.5 -90t-90.5 -61t-109.5 -22.5h-619v693zM927 411q0 42 -16.5 79.5t-45 65.5t-66.5 44.5t-80 16.5h-543v-541h545q42 0 79.5 16.5t65.5 45t44.5 66t16.5 80.5v127z" />
    <glyph glyph-name="e" unicode="e" horiz-adv-x="1088" 
d="M101 483q0 44 18.5 82.5t49 66.5t70.5 44t85 16h468q44 0 83.5 -16.5t69.5 -45.5t48 -67.5t18 -82.5q0 -45 -18 -83.5t-49 -67t-71 -45t-85 -16.5h-611v-95q4 -26 17.5 -44t33.5 -30t45 -17.5t51 -5.5h634v-76h-639q-38 0 -76.5 12t-69.5 34t-51 54t-21 73v310zM324 616
q-22 0 -48 -10t-48 -27.5t-36.5 -42t-14.5 -53.5v-139h615q28 0 54 10.5t46 29t31.5 43t11.5 53.5t-12 54t-32.5 43t-47 28.5t-55.5 10.5h-464z" />
    <glyph glyph-name="f" unicode="f" horiz-adv-x="1033" 
d="M237 555q-29 -28 -45 -65.5t-16 -81.5v-27h747v-76h-747v-305h-76v408q0 60 22.5 111.5t60.5 89.5q39 39 90.5 61.5t110.5 22.5h584v-76h-584q-43 0 -80.5 -16.5t-66.5 -45.5z" />
    <glyph glyph-name="h" unicode="h" horiz-adv-x="1017" 
d="M868 609q39 -38 61.5 -90t22.5 -111v-408h-76v408q0 43 -16.5 81t-45 66.5t-66.5 45t-81 16.5h-283q-43 0 -80.5 -16.5t-66 -45t-45 -66.5t-16.5 -81v-408h-76v859h76v-258q2 2 3.5 4t3.5 4q39 39 90.5 61.5t110.5 22.5h283q59 0 111 -22.5t90 -61.5z" />
    <glyph glyph-name="i" unicode="i" horiz-adv-x="265" 
d="M100 0v693h76v-693h-76z" />
    <glyph glyph-name="j" unicode="j" horiz-adv-x="1060" 
d="M224 693h728v-409q0 -59 -22.5 -110.5t-61.5 -90.5q-38 -38 -89.5 -60.5t-110.5 -22.5h-283q-60 0 -111.5 22.5t-89.5 60.5q-39 39 -61.5 90.5t-22.5 110.5v59h76v-59q0 -42 16.5 -80t44.5 -66.5t65.5 -45t80.5 -16.5h285q42 0 80 16.5t66.5 44.5t45 65.5t16.5 79.5v335
h-652v76z" />
    <glyph glyph-name="k" unicode="k" horiz-adv-x="1087" 
d="M739 384q52 -8 96 -33t76 -62.5t50.5 -85t18.5 -100.5v-103h-76v105q0 42 -16.5 79.5t-45 65.5t-66.5 44.5t-80 16.5h-520v-311h-76v701h76v-313h465l266 314h105l-273 -318v0z" />
    <glyph glyph-name="l" unicode="l" horiz-adv-x="969" 
d="M176 693v-408q0 -44 16 -81.5t45 -65.5q29 -29 66.5 -45.5t80.5 -16.5h584v-76h-584q-59 0 -110.5 22.5t-90.5 61.5q-38 38 -60.5 89.5t-22.5 111.5v408h76z" />
    <glyph glyph-name="m" unicode="m" horiz-adv-x="1508" 
d="M1159 693q58 0 110 -22.5t90.5 -61t61 -90.5t22.5 -111v-408h-76v408q0 42 -16.5 80t-44.5 66.5t-65.5 45.5t-79.5 17h-384v-617h-76v617h-525v-617h-76v693h1059v0z" />
    <glyph glyph-name="n" unicode="n" horiz-adv-x="1017" 
d="M668 693q58 0 110 -22.5t90.5 -61t61 -90.5t22.5 -111v-408h-76v408q0 42 -16.5 80t-44.5 66.5t-65.5 45.5t-79.5 17h-494v-617h-76v693h568z" />
    <glyph glyph-name="p" unicode="p" horiz-adv-x="1111" 
d="M177 0h-77v693h728q43 0 82.5 -17t69.5 -46t48 -67.5t18 -81.5q0 -44 -18.5 -83t-49 -67.5t-71 -45t-84.5 -16.5h-646v-269zM825 345q29 0 55 10.5t45.5 29t31.5 43.5t13 53q-1 28 -13 53t-32 43.5t-46.5 29t-55.5 10.5h-646v-272h648z" />
    <glyph glyph-name="q" unicode="q" horiz-adv-x="1248" 
d="M600 -150v150h-216q-59 0 -110.5 22.5t-90 61t-61 90t-22.5 110.5v127q0 58 22.5 110t61 90.5t90 61t110.5 22.5h514q59 0 111 -22.5t90.5 -61t61 -90.5t22.5 -110v-127q0 -59 -22.5 -110.5t-61 -90t-90.5 -61t-111 -22.5h-222v-150h-76zM176 411v-127q0 -43 16.5 -80.5
t45 -66t66 -45t80.5 -16.5h216v137h76v-137h222q43 0 81 16.5t66.5 45t45 66t16.5 80.5v127q0 43 -16.5 80.5t-45 66t-66.5 45t-81 16.5h-514q-43 0 -80.5 -16.5t-66 -45t-45 -66t-16.5 -80.5z" />
    <glyph glyph-name="r" unicode="r" horiz-adv-x="890" 
d="M100 0v409q0 58 22.5 110t61 90.5t90 61t110.5 22.5h514v-76h-514q-43 0 -80.5 -16.5t-66 -45t-45 -66t-16.5 -80.5v-409h-76z" />
    <glyph glyph-name="s" unicode="s" horiz-adv-x="1018" 
d="M761 0h-661v76h661q24 0 45 9t37 25t25 37t9 45t-9 45.5t-24.5 37.5t-37 25t-45.5 9h-507q-39 0 -74 15t-61.5 41t-41.5 61t-15 75t15 75.5t41 61.5t61 41.5t75 15.5h661v-76h-661q-25 0 -45.5 -9.5t-36 -25t-24.5 -36.5t-10 -45q4 -50 36 -84t80 -34h507q40 0 75 -15
t61 -41t41 -61t15 -75t-15 -75t-41 -61.5t-61 -41.5t-75 -15z" />
    <glyph glyph-name="t" unicode="t" horiz-adv-x="1043" 
d="M838 520h-662v-235q0 -44 16 -81.5t45 -65.5q29 -29 66.5 -45.5t80.5 -16.5h584v-76h-584q-59 0 -110.5 22.5t-90.5 61.5q-38 38 -60.5 89.5t-22.5 111.5v408h76v-97h662v-76z" />
    <glyph glyph-name="u" unicode="u" horiz-adv-x="1031" 
d="M384 0q-59 0 -110.5 22.5t-90 61t-61 90.5t-22.5 111v408h76v-408q0 -42 16.5 -80t44.5 -66.5t65.5 -45.5t79.5 -17h494v617h76v-693h-568z" />
    <glyph glyph-name="v" unicode="v" horiz-adv-x="1172" 
d="M561 0h-23l-524 693h95l450 -596l455 596h96l-530 -693h-19z" />
    <glyph glyph-name="w" unicode="w" horiz-adv-x="1508" 
d="M384 0q-59 0 -110.5 22.5t-90 61t-61 90.5t-22.5 111v408h76v-408q0 -42 16.5 -80t44.5 -66.5t65.5 -45.5t79.5 -17h384v617h76v-617h525v617h76v-693h-1059v0z" />
    <glyph glyph-name="x" unicode="x" horiz-adv-x="1017" 
d="M868 304q39 -39 61.5 -90.5t22.5 -110.5v-103h-76v103q0 42 -16.5 80t-44.5 66.5t-65.5 45t-80.5 16.5h-285q-42 0 -80 -16.5t-66.5 -44.5t-45 -65.5t-16.5 -79.5v-105h-76v103q0 59 22.5 110.5t61.5 90.5q13 13 27.5 24t30.5 21q-34 19 -58 45q-39 39 -61.5 90.5
t-22.5 110.5v98h76v-98q0 -42 16.5 -80t44.5 -66.5t65.5 -45t80.5 -16.5h293q41 0 77.5 16.5t63.5 45t43 66t16 78.5v100h76v-98q0 -59 -22.5 -110.5t-61.5 -90.5q-28 -28 -59 -45q17 -10 31 -21t28 -24z" />
    <glyph glyph-name="y" unicode="y" horiz-adv-x="1017" 
d="M952 693v-409q0 -59 -22.5 -110.5t-61 -90t-90 -61t-110.5 -22.5h-514v76h514q43 0 80.5 16.5t66 45t45 66t16.5 80.5v16h-492q-59 0 -110.5 22.5t-90 61t-61 90.5t-22.5 111v108h76v-108q0 -42 16.5 -80t44.5 -66.5t65.5 -45.5t79.5 -17h494v317h76z" />
    <glyph glyph-name="z" unicode="z" horiz-adv-x="1131" 
d="M101 0v77l821 540h-819v76h966v-71l-831 -546h817v-76h-954z" />
    <glyph glyph-name="braceleft" unicode="{" horiz-adv-x="626" 
d="M306 153q0 -42 4 -69t17.5 -43t39 -22.5t67.5 -6.5h92v-62h-108q-53 0 -87.5 11.5t-54.5 35t-27.5 59.5t-7.5 86v103q0 42 -20 64.5t-77 22.5h-99v58h99q57 0 77 22.5t20 64.5v81q0 50 7.5 86t27.5 59.5t54.5 35t87.5 11.5h108v-62h-92q-42 0 -67.5 -6.5t-39 -22.5
t-17.5 -43t-4 -69v-76q0 -57 -24.5 -81t-76.5 -28v-2q52 -4 76.5 -28t24.5 -81v-98z" />
    <glyph glyph-name="bar" unicode="|" horiz-adv-x="425" 
d="M180 750h65v-800h-65v800z" />
    <glyph glyph-name="braceright" unicode="}" horiz-adv-x="626" 
d="M320 251q0 57 24.5 81t76.5 28v2q-52 4 -76.5 28t-24.5 81v76q0 42 -4 69t-17.5 43t-39 22.5t-67.5 6.5h-92v62h108q53 0 87.5 -11.5t54.5 -35t27.5 -59.5t7.5 -86v-81q0 -40 18 -62.5t68 -24.5h110v-58h-99q-57 0 -77 -22.5t-20 -64.5v-103q0 -50 -7.5 -86t-27.5 -59.5
t-54.5 -35t-87.5 -11.5h-108v62h92q42 0 67.5 6.5t39 22.5t17.5 43t4 69v98z" />
    <glyph glyph-name="asciitilde" unicode="~" horiz-adv-x="705" 
d="M581 467q-46 0 -93 25l-234 119q-27 14 -48 14q-9 0 -19 -7t-10 -36v-98h-77v91q0 59 29 90q28 28 72 28q43 0 93 -25l234 -119q30 -15 48 -15q4 0 9.5 1.5t9.5 6t7 13t3 22.5v99h77v-92q0 -58 -29 -89q-27 -28 -72 -28z" />
    <glyph glyph-name="exclamdown" unicode="&#xa1;" horiz-adv-x="389" 
d="M160 0v490h69v-490h-69zM160 576v124h69v-124h-69z" />
    <glyph glyph-name="sterling" unicode="&#xa3;" horiz-adv-x="1126" 
d="M1023 76v-76h-900v76q37 0 59.5 6t34.5 22t16.5 42t4.5 67h-97v76h97v44h-97v76h97v5q0 58 22.5 110t61 90.5t90 61t110.5 22.5h476v-76h-476q-43 0 -80.5 -16.5t-66 -45t-45 -66t-16.5 -80.5v-5h537v-76h-537v-44h537v-76h-537q-1 -45 -6 -79t-16 -58h731z" />
    <glyph glyph-name="fraction" unicode="&#x2044;" horiz-adv-x="782" 
d="M677 700h75l-647 -700h-75z" />
    <glyph glyph-name="fraction" unicode="&#x2215;" horiz-adv-x="782" 
d="M677 700h75l-647 -700h-75z" />
    <glyph glyph-name="quotesingle" unicode="'" horiz-adv-x="225" 
d="M80 477v223h65v-223h-65z" />
    <glyph glyph-name="quotedblleft" unicode="&#x201c;" horiz-adv-x="476" 
d="M321 477l-61 223h85l61 -223h-85zM141 477l-61 223h85l61 -223h-85z" />
    <glyph glyph-name="fi" unicode="&#xfb01;" horiz-adv-x="1179" 
d="M237 555q-29 -28 -45 -65.5t-16 -81.5v-27h747v-76h-747v-305h-76v408q0 60 22.5 111.5t60.5 89.5q39 39 90.5 61.5t110.5 22.5h584v-76h-584q-43 0 -80.5 -16.5t-66.5 -45.5zM1016 0v693h76v-693h-76z" />
    <glyph glyph-name="endash" unicode="&#x2013;" horiz-adv-x="951" 
d="M80 386h791v-60h-791v60z" />
    <glyph glyph-name="dagger" unicode="&#x2020;" horiz-adv-x="515" 
 />
    <glyph glyph-name="daggerdbl" unicode="&#x2021;" horiz-adv-x="515" 
 />
    <glyph glyph-name="periodcentered" unicode="&#xb7;" horiz-adv-x="292" 
d="M100 291v89h92v-89h-92z" />
    <glyph glyph-name="periodcentered" unicode="&#x2219;" horiz-adv-x="292" 
d="M100 291v89h92v-89h-92z" />
    <glyph glyph-name="bullet" unicode="&#x2022;" horiz-adv-x="470" 
d="M80 350q0 32 12 60.5t33 49.5t49.5 33t60.5 12t60.5 -12t49.5 -33t33 -49.5t12 -60.5t-12 -60.5t-33 -49.5t-49.5 -33t-60.5 -12t-60.5 12t-49.5 33t-33 49.5t-12 60.5zM235 459q-23 0 -42.5 -8.5t-34.5 -23.5t-23.5 -35t-8.5 -42q0 -23 8.5 -42.5t23.5 -34.5t34.5 -23.5
t42.5 -8.5q22 0 42 8.5t35 23.5t23.5 34.5t8.5 42.5q0 22 -8.5 42t-23.5 35t-35 23.5t-42 8.5z" />
    <glyph glyph-name="quotesinglbase" unicode="&#x201a;" horiz-adv-x="280" 
d="M80 -114l55 203h65l-55 -203h-65z" />
    <glyph glyph-name="quotedblbase" unicode="&#x201e;" horiz-adv-x="510" 
d="M80 -114l55 203h65l-55 -203h-65zM310 -114l55 203h65l-55 -203h-65z" />
    <glyph glyph-name="quotedblright" unicode="&#x201d;" horiz-adv-x="491" 
d="M80 477l61 223h85l-61 -223h-85zM260 477l61 223h85l-61 -223h-85z" />
    <glyph glyph-name="ellipsis" unicode="&#x2026;" horiz-adv-x="776" 
d="M90 0v89h92v-89h-92zM342 0v89h92v-89h-92zM594 0v89h92v-89h-92z" />
    <glyph glyph-name="perthousand" unicode="&#x2030;" horiz-adv-x="1661" 
d="M283 -11l457 719h85l-457 -719h-85zM903 0h-173q-31 0 -58 11.5t-47 31.5t-32 47.5t-12 58.5v15q0 31 11.5 58t32 47.5t47.5 32.5t58 12h173q31 0 58 -12t47 -32t32 -47.5t12 -58.5v-15q0 -30 -11.5 -57.5t-32 -47.5t-47.5 -32t-58 -12zM673 221q-11 -11 -17 -25.5
t-6 -31.5v-15q0 -33 23.5 -56.5t56.5 -23.5h173q33 0 56.5 23.5t23.5 56.5v15q0 34 -23.5 57.5t-56.5 23.5h-173q-33 0 -57 -24zM393 384h-173q-31 0 -58 11.5t-47 31.5t-32 47.5t-12 58.5v15q0 31 11.5 58t32 47.5t47.5 32.5t58 12h173q31 0 58 -12t47 -32t32 -47.5
t12 -58.5v-15q0 -30 -11.5 -57.5t-32 -47.5t-47.5 -32t-58 -12zM163 605q-11 -11 -17 -25.5t-6 -31.5v-15q0 -33 23.5 -56.5t56.5 -23.5h173q33 0 56.5 23.5t23.5 56.5v15q0 34 -23.5 57.5t-56.5 23.5h-173q-33 0 -57 -24zM1423 0h-173q-31 0 -58 11.5t-47 31.5t-32 47.5
t-12 58.5v15q0 31 11.5 58t32 47.5t47.5 32.5t58 12h173q31 0 58 -12t47 -32t32 -47.5t12 -58.5v-15q0 -30 -11.5 -57.5t-32 -47.5t-47.5 -32t-58 -12zM1193 221q-11 -11 -17 -25.5t-6 -31.5v-15q0 -33 23.5 -56.5t56.5 -23.5h173q33 0 56.5 23.5t23.5 56.5v15
q0 34 -23.5 57.5t-56.5 23.5h-173q-33 0 -57 -24z" />
    <glyph glyph-name="questiondown" unicode="&#xbf;" horiz-adv-x="1035" 
d="M886 222q0 15 -7.5 23.5t-15.5 13.5q-11 5 -23 7h-283q-6 0 -20.5 1t-32 6t-36.5 15t-34.5 27t-25.5 43.5t-10 63.5v98h76v-98q0 -5 1.5 -18t9.5 -27t24.5 -24.5t46.5 -10.5h289q32 -3 58 -15q22 -11 40.5 -34t18.5 -64v-79q0 -36 -10.5 -61t-27 -42t-36 -26t-37.5 -14
t-32.5 -6t-20.5 -1h-540q-13 0 -39 3.5t-52.5 18.5t-46.5 45t-20 83v89h76v-89q0 -5 2 -17.5t10.5 -25t26 -22t49.5 -9.5h534q31 0 49 9.5t26.5 22t10.5 24t2 16.5v74zM475 693v-113h-76v113h76z" />
    <glyph glyph-name="grave" unicode="`" horiz-adv-x="521" 
d="M214 958l190 -189l-54 -54l-190 189z" />
    <glyph glyph-name="acute" unicode="&#xb4;" horiz-adv-x="521" 
d="M411 904l-190 -189l-54 54l190 189z" />
    <glyph glyph-name="circumflex" unicode="&#x2c6;" horiz-adv-x="784" 
d="M404 880l-284 -135l-33 69l317 150l317 -150l-33 -69z" />
    <glyph glyph-name="tilde" unicode="&#x2dc;" horiz-adv-x="663" 
d="M535 716q-20 0 -41 5.5t-43 17.5l-211 107q-13 7 -23.5 9.5t-19.5 2.5q-8 0 -17 -6t-9 -32v-89h-69v90q0 53 26 81q25 25 65 25t83 -23l211 -107q26 -13 43 -13q8 0 17 6t9 32v89h70v-90q0 -53 -27 -80q-24 -25 -64 -25z" />
    <glyph glyph-name="macron" unicode="&#xaf;" horiz-adv-x="658" 
d="M100 837h463v-76h-463v76z" />
    <glyph glyph-name="macron" unicode="&#x2c9;" horiz-adv-x="658" 
d="M100 837h463v-76h-463v76z" />
    <glyph glyph-name="breve" unicode="&#x2d8;" horiz-adv-x="686" 
d="M219 833v-13q0 -29 19.5 -48.5t48.5 -19.5h168q28 0 48.5 19.5t20.5 48.5v13h59v-13q0 -26 -10 -49t-27.5 -40.5t-40.5 -27.5t-50 -10h-168q-53 0 -90 37q-17 17 -27 40.5t-10 49.5v13h59z" />
    <glyph glyph-name="dotaccent" unicode="&#x2d9;" horiz-adv-x="332" 
d="M100 902h132v-109h-132v109z" />
    <glyph glyph-name="dieresis" unicode="&#xa8;" horiz-adv-x="593" 
d="M101 790v90h86v-90h-86zM391 790v90h86v-90h-86z" />
    <glyph glyph-name="ring" unicode="&#x2da;" horiz-adv-x="545" 
d="M373 697h-148q-53 0 -90 37q-17 17 -27 40.5t-10 49.5v13q0 27 10 50t27 40.5t40.5 28t49.5 10.5h148q26 0 49.5 -10t41 -27.5t27.5 -41t10 -50.5v-13q0 -26 -10 -49t-27.5 -40.5t-40.5 -27.5t-50 -10zM177 886q-20 -20 -20 -49v-13q0 -29 19.5 -48.5t48.5 -19.5h148
q28 0 48.5 19.5t20.5 48.5v13q0 29 -20.5 49t-48.5 20h-148q-28 0 -48 -20z" />
    <glyph glyph-name="cedilla" unicode="&#xb8;" horiz-adv-x="477" 
d="M214 -240h-98v71h102q26 0 43 20t17 45v104h72v-104q0 -26 -10.5 -50.5t-29 -43.5t-43.5 -30.5t-53 -11.5z" />
    <glyph glyph-name="hungarumlaut" unicode="&#x2dd;" horiz-adv-x="772" 
d="M451 904l-190 -189l-54 54l190 189zM671 904l-190 -189l-54 54l190 189z" />
    <glyph glyph-name="ogonek" unicode="&#x2db;" horiz-adv-x="477" 
d="M212 -200q-21 0 -41 7.5t-36 20.5t-25.5 31.5t-9.5 40.5v2q0 34 16 63.5t42 49.5l22 20h110l-83 -79q-11 -11 -20.5 -23.5t-9.5 -25.5q0 -6 3 -12q6 -11 14 -13.5t21 -4.5h192v-77h-195z" />
    <glyph glyph-name="caron" unicode="&#x2c7;" horiz-adv-x="784" 
d="M688 964l33 -69l-317 -150l-317 150l33 69l284 -135z" />
    <glyph glyph-name="emdash" unicode="&#x2014;" horiz-adv-x="1229" 
d="M80 386h1069v-60h-1069v60z" />
    <glyph glyph-name="Lslash" unicode="&#x141;" horiz-adv-x="1033" 
d="M1053 76v-76h-584q-59 0 -110.5 22.5t-90.5 61.5q-34 34 -55.5 78t-26.5 95l-186 -107l-38 66l223 127v350h76v-306l258 148l38 -66l-296 -169v-15q0 -44 16 -81.5t45 -65.5q29 -29 66.5 -45.5t80.5 -16.5h584z" />
    <glyph glyph-name="Oslash" unicode="&#xd8;" horiz-adv-x="1264" 
d="M897 696q59 0 111 -22.5t90.5 -61t61 -90.5t22.5 -110v-127q0 -59 -22.5 -110.5t-61 -90t-90.5 -61t-111 -22.5h-514q-59 0 -110.5 22.5t-90 61t-61 90t-22.5 110.5v127q0 58 22.5 110t61 90.5t90 61t110.5 22.5h514zM175 285q0 -35 11.5 -67.5t31.5 -58.5l784 433
q-48 28 -105 28h-514q-43 0 -80.5 -16.5t-66 -45t-45 -66t-16.5 -80.5v-127zM1106 412q0 38 -13 72t-36 61l-787 -435q25 -16 53.5 -24.5t59.5 -8.5h514q43 0 81 16.5t66.5 45t45 66t16.5 80.5v127z" />
    <glyph glyph-name="OE" unicode="&#x152;" horiz-adv-x="1907" 
d="M1084 382h723v-76h-723v-28q0 -42 17 -79t45 -65t66 -44t80 -16h515v-76h-515q-79 0 -144 39.5t-102 103.5q-37 -64 -102 -103.5t-145 -39.5h-414q-59 0 -110.5 22.5t-90 61t-61 90t-22.5 110.5v127q0 59 22.5 110.5t61 90t90 61t110.5 22.5h414q80 0 145 -39.5
t102 -103.5q19 31 45 57t57.5 45t68 29t75.5 10h515v-76h-515q-43 0 -80.5 -16t-66.5 -45q-28 -28 -44 -64.5t-17 -78.5v-29zM1008 409q0 43 -16.5 80.5t-45 66t-66.5 45t-81 16.5h-414q-43 0 -80.5 -16.5t-66 -45t-45 -66t-16.5 -80.5v-127q0 -43 16.5 -80.5t45 -66t66 -45
t80.5 -16.5h414q43 0 81 16.5t66.5 45t45 66t16.5 80.5v127z" />
    <glyph glyph-name="ae" unicode="&#xe6;" horiz-adv-x="1886" 
d="M980 172q4 -26 17.5 -44t33.5 -30t45 -17.5t51 -5.5h634v-76h-639q-38 0 -74.5 11t-67.5 32v-42h-668q-68 0 -123 34.5t-81 93.5q-18 39 -18 83q0 45 17.5 83.5t47.5 67t69.5 45t83.5 16.5h596v47q0 30 -12 57t-32.5 47t-47 31.5t-56.5 11.5h-503v76h503q58 0 106 -26.5
t78 -70.5q31 44 80.5 69.5t106.5 25.5h468q44 0 83.5 -16.5t69.5 -45.5t48 -67.5t18 -82.5q0 -45 -18 -83.5t-49 -67t-71 -45t-85 -16.5h-611v-95zM980 343h615q28 0 54 10.5t46 29t31.5 43t11.5 53.5t-12 54t-32.5 43t-47 28.5t-55.5 10.5h-464q-22 0 -48 -10t-48 -27.5
t-36.5 -42t-14.5 -53.5v-139zM904 347h-592q-23 0 -44 -6.5t-38 -17.5q-30 -19 -47 -48t-17 -64q0 -29 11.5 -53.5t31 -42.5t45 -28.5t54.5 -10.5h596v271z" />
    <glyph glyph-name="dotlessi" unicode="&#x131;" horiz-adv-x="241" 
d="M100 0v693h76v-693h-76z" />
    <glyph glyph-name="lslash" unicode="&#x142;" horiz-adv-x="1069" 
d="M1053 76v-76h-584q-59 0 -110.5 22.5t-90.5 61.5q-34 34 -55.5 78t-26.5 95l-186 -107l-38 66l223 127v350h76v-306l258 148l38 -66l-296 -169v-15q0 -44 16 -81.5t45 -65.5q29 -29 66.5 -45.5t80.5 -16.5h584z" />
    <glyph glyph-name="oslash" unicode="&#xf8;" horiz-adv-x="1264" 
d="M897 696q59 0 111 -22.5t90.5 -61t61 -90.5t22.5 -110v-127q0 -59 -22.5 -110.5t-61 -90t-90.5 -61t-111 -22.5h-514q-59 0 -110.5 22.5t-90 61t-61 90t-22.5 110.5v127q0 58 22.5 110t61 90.5t90 61t110.5 22.5h514zM175 285q0 -35 11.5 -67.5t31.5 -58.5l784 433
q-48 28 -105 28h-514q-43 0 -80.5 -16.5t-66 -45t-45 -66t-16.5 -80.5v-127zM1106 412q0 38 -13 72t-36 61l-787 -435q25 -16 53.5 -24.5t59.5 -8.5h514q43 0 81 16.5t66.5 45t45 66t16.5 80.5v127z" />
    <glyph glyph-name="oe" unicode="&#x153;" horiz-adv-x="2017" 
d="M1063 173q4 -26 17.5 -44t33.5 -30t45 -17.5t51 -5.5h634v-76h-639q-30 0 -60.5 7.5t-57.5 21.5t-49 34.5t-35 46.5q-39 -51 -97.5 -80.5t-127.5 -29.5h-394q-59 0 -110.5 22.5t-90 61t-61 90t-22.5 110.5v125q0 59 22.5 110.5t61 90t90 61t110.5 22.5h394
q72 0 133 -32.5t99 -87.5q29 53 82.5 85t117.5 32h468q44 0 83.5 -16.5t69.5 -45.5t48 -67.5t18 -82.5q0 -45 -18 -83t-49 -66.5t-71 -44.5t-85 -16h-611v-95zM1063 344h615q28 0 54 10t46 28t31.5 42.5t11.5 53.5t-12 54t-32.5 43t-47 28.5t-55.5 10.5h-464q-22 0 -48 -10
t-48 -27.5t-36.5 -42t-14.5 -53.5v-137zM987 409q0 43 -16.5 80.5t-45 66t-66.5 45t-81 16.5h-394q-43 0 -80.5 -16.5t-66 -45t-45 -66t-16.5 -80.5v-125q0 -43 16.5 -80.5t45 -66t66 -45t80.5 -16.5h394q43 0 81 16.5t66.5 45t45 66t16.5 80.5v125z" />
    <glyph glyph-name="germandbls" unicode="&#xdf;" horiz-adv-x="2188" 
 />
    <glyph glyph-name="Eth" unicode="&#xd0;" horiz-adv-x="1233" 
d="M863 693q59 0 110.5 -22.5t90 -61.5t61 -90.5t22.5 -109.5v-125q0 -59 -22.5 -110.5t-61.5 -90t-90.5 -61t-109.5 -22.5h-619v309h-193v76h193v308h619zM1071 411q0 42 -16.5 79.5t-45 65.5t-66.5 44.5t-80 16.5h-543v-232h245v-76h-245v-233h545q42 0 79.5 16.5t65.5 45
t44.5 66t16.5 80.5v127z" />
    <glyph glyph-name="onehalf" unicode="&#xbd;" horiz-adv-x="1120" 
 />
    <glyph glyph-name="Thorn" unicode="&#xde;" horiz-adv-x="1135" 
 />
    <glyph glyph-name="onequarter" unicode="&#xbc;" horiz-adv-x="1108" 
 />
    <glyph glyph-name="threequarters" unicode="&#xbe;" horiz-adv-x="1268" 
 />
    <glyph glyph-name="twosuperior" unicode="&#xb2;" horiz-adv-x="591" 
 />
    <glyph glyph-name="eth" unicode="&#xf0;" horiz-adv-x="1233" 
d="M863 693q59 0 110.5 -22.5t90 -61.5t61 -90.5t22.5 -109.5v-125q0 -59 -22.5 -110.5t-61.5 -90t-90.5 -61t-109.5 -22.5h-619v309h-193v76h193v308h619zM1071 411q0 42 -16.5 79.5t-45 65.5t-66.5 44.5t-80 16.5h-543v-232h245v-76h-245v-233h545q42 0 79.5 16.5t65.5 45
t44.5 66t16.5 80.5v127z" />
    <glyph glyph-name="threesuperior" unicode="&#xb3;" horiz-adv-x="591" 
 />
    <glyph glyph-name="copyright" unicode="&#xa9;" horiz-adv-x="1220" 
 />
    <glyph glyph-name="Aacute" unicode="&#xc1;" horiz-adv-x="1072" 
d="M677 906l-190 -189l-54 54l190 189zM923 610q38 -39 60.5 -90.5t22.5 -110.5v-409h-76v318h-754v-318h-76v409q0 59 22.5 110.5t61.5 90t90.5 61t109.5 22.5h338q59 0 110.5 -22.5t90.5 -60.5zM930 394v17q0 42 -16.5 79.5t-45 65.5t-66.5 44.5t-80 16.5h-340
q-42 0 -79.5 -16.5t-65.5 -45t-44.5 -66t-16.5 -80.5v-15h754z" />
    <glyph glyph-name="Acircumflex" unicode="&#xc2;" horiz-adv-x="1072" 
d="M548 853l-284 -135l-33 69l317 150l317 -150l-33 -69zM923 610q38 -39 60.5 -90.5t22.5 -110.5v-409h-76v318h-754v-318h-76v409q0 59 22.5 110.5t61.5 90t90.5 61t109.5 22.5h338q59 0 110.5 -22.5t90.5 -60.5zM930 394v17q0 42 -16.5 79.5t-45 65.5t-66.5 44.5
t-80 16.5h-340q-42 0 -79.5 -16.5t-65.5 -45t-44.5 -66t-16.5 -80.5v-15h754z" />
    <glyph glyph-name="Adieresis" unicode="&#xc4;" horiz-adv-x="1076" 
d="M923 610q38 -39 60.5 -90.5t22.5 -110.5v-409h-76v318h-754v-318h-76v409q0 59 22.5 110.5t61.5 90t90.5 61t109.5 22.5h338q59 0 110.5 -22.5t90.5 -60.5zM930 394v17q0 42 -16.5 79.5t-45 65.5t-66.5 44.5t-80 16.5h-340q-42 0 -79.5 -16.5t-65.5 -45t-44.5 -66
t-16.5 -80.5v-15h754zM370 790v90h86v-90h-86zM660 790v90h86v-90h-86z" />
    <glyph glyph-name="Agrave" unicode="&#xc0;" horiz-adv-x="1072" 
d="M460 960l190 -189l-54 -54l-190 189zM923 610q38 -39 60.5 -90.5t22.5 -110.5v-409h-76v318h-754v-318h-76v409q0 59 22.5 110.5t61.5 90t90.5 61t109.5 22.5h338q59 0 110.5 -22.5t90.5 -60.5zM930 394v17q0 42 -16.5 79.5t-45 65.5t-66.5 44.5t-80 16.5h-340
q-42 0 -79.5 -16.5t-65.5 -45t-44.5 -66t-16.5 -80.5v-15h754z" />
    <glyph glyph-name="Aring" unicode="&#xc5;" horiz-adv-x="1071" 
d="M923 610q38 -39 60.5 -90.5t22.5 -110.5v-409h-76v318h-754v-318h-76v409q0 59 22.5 110.5t61.5 90t90.5 61t109.5 22.5h338q59 0 110.5 -22.5t90.5 -60.5zM930 394v17q0 42 -16.5 79.5t-45 65.5t-66.5 44.5t-80 16.5h-340q-42 0 -79.5 -16.5t-65.5 -45t-44.5 -66
t-16.5 -80.5v-15h754zM608.494 723.682h-130.737q-46.8184 0 -79.5029 32.7363q-15.0176 15.041 -23.8506 35.833q-8.83398 20.792 -8.83398 43.7959v11.502q0 23.8887 8.83398 44.2383q8.83301 20.3496 23.8506 35.833t35.7764 24.7734t43.7266 9.29004h130.737
q22.9668 0 43.7266 -8.84766q20.7588 -8.84766 36.2178 -24.3311t24.292 -36.2754q8.83398 -20.792 8.83398 -44.6807v-11.502q0 -23.0039 -8.83398 -43.3535q-8.83301 -20.3496 -24.292 -35.833t-35.7764 -24.3311t-44.168 -8.84766zM435.355 890.902
q-17.668 -17.6953 -17.668 -43.3535v-11.502q0 -25.6582 17.2256 -42.9111t42.8438 -17.2529h130.737q24.7344 0 42.8428 17.2529q18.1094 17.2529 18.1094 42.9111v11.502q0 25.6582 -18.1094 43.3535q-18.1084 17.6953 -42.8428 17.6953h-130.737
q-24.7344 0 -42.4014 -17.6953z" />
    <glyph glyph-name="Atilde" unicode="&#xc3;" horiz-adv-x="1072" 
d="M703 736q-20 0 -41 5.5t-43 17.5l-211 107q-13 7 -23.5 9.5t-19.5 2.5q-8 0 -17 -6t-9 -32v-89h-69v90q0 53 26 81q25 25 65 25t83 -23l211 -107q26 -13 43 -13q8 0 17 6t9 32v89h70v-90q0 -53 -27 -80q-24 -25 -64 -25zM923 610q38 -39 60.5 -90.5t22.5 -110.5v-409h-76
v318h-754v-318h-76v409q0 59 22.5 110.5t61.5 90t90.5 61t109.5 22.5h338q59 0 110.5 -22.5t90.5 -60.5zM930 394v17q0 42 -16.5 79.5t-45 65.5t-66.5 44.5t-80 16.5h-340q-42 0 -79.5 -16.5t-65.5 -45t-44.5 -66t-16.5 -80.5v-15h754z" />
    <glyph glyph-name="Ccedilla" unicode="&#xc7;" horiz-adv-x="1143" 
d="M519 -238h-98v71h102q26 0 43 20t17 45v104h72v-104q0 -26 -10.5 -50.5t-29 -43.5t-43.5 -30.5t-53 -11.5zM184 83q-39 39 -61.5 90.5t-22.5 110.5v125q0 58 22.5 110t61 90.5t90.5 61t111 22.5h584v-76h-584q-43 0 -81 -16.5t-66.5 -45t-45 -66t-16.5 -80.5v-125
q0 -42 16.5 -80t44.5 -66.5t65.5 -45t80.5 -16.5h586v-76h-584q-59 0 -111 22.5t-90 60.5z" />
    <glyph glyph-name="Eacute" unicode="&#xc9;" horiz-adv-x="1057" 
d="M729 906l-190 -189l-54 54l190 189zM237 556q-29 -29 -45 -66.5t-16 -80.5v-25h793v-76h-793v-26q0 -42 16.5 -79.5t45 -65.5t66.5 -44.5t80 -16.5h585v-76h-585q-59 0 -110.5 22.5t-90 61.5t-61 90.5t-22.5 109.5v125q0 59 22.5 110.5t61.5 90t90.5 61t109.5 22.5h585
v-76h-585q-43 0 -80.5 -16t-66.5 -45z" />
    <glyph glyph-name="Ecircumflex" unicode="&#xca;" horiz-adv-x="1057" 
d="M589 882l-284 -135l-33 69l317 150l317 -150l-33 -69zM237 556q-29 -29 -45 -66.5t-16 -80.5v-25h793v-76h-793v-26q0 -42 16.5 -79.5t45 -65.5t66.5 -44.5t80 -16.5h585v-76h-585q-59 0 -110.5 22.5t-90 61.5t-61 90.5t-22.5 109.5v125q0 59 22.5 110.5t61.5 90t90.5 61
t109.5 22.5h585v-76h-585q-43 0 -80.5 -16t-66.5 -45z" />
    <glyph glyph-name="Edieresis" unicode="&#xcb;" horiz-adv-x="1057" 
d="M417 809v90h86v-90h-86zM707 809v90h86v-90h-86zM237 556q-29 -29 -45 -66.5t-16 -80.5v-25h793v-76h-793v-26q0 -42 16.5 -79.5t45 -65.5t66.5 -44.5t80 -16.5h585v-76h-585q-59 0 -110.5 22.5t-90 61.5t-61 90.5t-22.5 109.5v125q0 59 22.5 110.5t61.5 90t90.5 61
t109.5 22.5h585v-76h-585q-43 0 -80.5 -16t-66.5 -45z" />
    <glyph glyph-name="Egrave" unicode="&#xc8;" horiz-adv-x="1057" 
d="M478 960l190 -189l-54 -54l-190 189zM237 556q-29 -29 -45 -66.5t-16 -80.5v-25h793v-76h-793v-26q0 -42 16.5 -79.5t45 -65.5t66.5 -44.5t80 -16.5h585v-76h-585q-59 0 -110.5 22.5t-90 61.5t-61 90.5t-22.5 109.5v125q0 59 22.5 110.5t61.5 90t90.5 61t109.5 22.5h585
v-76h-585q-43 0 -80.5 -16t-66.5 -45z" />
    <glyph glyph-name="Iacute" unicode="&#xcd;" horiz-adv-x="241" 
d="M100 0v693h76v-693h-76zM242 904l-190 -189l-54 54l190 189z" />
    <glyph glyph-name="Icircumflex" unicode="&#xce;" horiz-adv-x="241" 
d="M100 0v693h76v-693h-76zM143 860l-284 -135l-33 69l317 150l317 -150l-33 -69z" />
    <glyph glyph-name="Idieresis" unicode="&#xcf;" horiz-adv-x="463" 
d="M199 0v700h65v-700h-65zM35 899h97v-89h-97v89zM331 899h97v-89h-97v89z" />
    <glyph glyph-name="Igrave" unicode="&#xcc;" horiz-adv-x="241" 
d="M100 0v693h76v-693h-76zM55 958l190 -189l-54 -54l-190 189z" />
    <glyph glyph-name="Ntilde" unicode="&#xd1;" 
d="M738 736q-20 0 -41 5.5t-43 17.5l-211 107q-13 7 -23.5 9.5t-19.5 2.5q-8 0 -17 -6t-9 -32v-89h-69v90q0 53 26 81q25 25 65 25t83 -23l211 -107q26 -13 43 -13q8 0 17 6t9 32v89h70v-90q0 -53 -27 -80q-24 -25 -64 -25zM811 6q-14 6 -23.5 13t-23.5 24l-477 562
q-9 11 -21 15.5t-26 4.5q-23 0 -43 -14t-21 -40v-571h-76v578l1 3q2 28 15 50.5t32.5 38.5t44 24t49.5 8q29 0 56.5 -11.5t47.5 -37.5l477 -562q9 -11 21.5 -16t25.5 -5q23 0 42 14.5t21 40.5v570h77v-577q-3 -28 -16 -51t-32.5 -39.5t-43.5 -25.5t-49 -9q-31 0 -58 13z" />
    <glyph glyph-name="Oacute" unicode="&#xd3;" horiz-adv-x="1224" 
d="M813 906l-190 -189l-54 54l190 189zM384 0q-59 0 -110.5 22.5t-90 61t-61 90t-22.5 110.5v125q0 58 22.5 110t61 90.5t90 61t110.5 22.5h514q59 0 111 -22.5t90.5 -61t61 -90.5t22.5 -110v-125q0 -59 -22.5 -110.5t-61 -90t-90.5 -61t-111 -22.5h-514zM176 409v-125
q0 -43 16.5 -80.5t45 -66t66 -45t80.5 -16.5h514q43 0 81 16.5t66.5 45t45 66t16.5 80.5v125q0 43 -16.5 80.5t-45 66t-66.5 45t-81 16.5h-514q-43 0 -80.5 -16.5t-66 -45t-45 -66t-16.5 -80.5z" />
    <glyph glyph-name="Ocircumflex" unicode="&#xd4;" horiz-adv-x="1224" 
d="M624 882l-284 -135l-33 69l317 150l317 -150l-33 -69zM384 0q-59 0 -110.5 22.5t-90 61t-61 90t-22.5 110.5v125q0 58 22.5 110t61 90.5t90 61t110.5 22.5h514q59 0 111 -22.5t90.5 -61t61 -90.5t22.5 -110v-125q0 -59 -22.5 -110.5t-61 -90t-90.5 -61t-111 -22.5h-514z
M176 409v-125q0 -43 16.5 -80.5t45 -66t66 -45t80.5 -16.5h514q43 0 81 16.5t66.5 45t45 66t16.5 80.5v125q0 43 -16.5 80.5t-45 66t-66.5 45t-81 16.5h-514q-43 0 -80.5 -16.5t-66 -45t-45 -66t-16.5 -80.5z" />
    <glyph glyph-name="Odieresis" unicode="&#xd6;" horiz-adv-x="1224" 
d="M447 809v90h86v-90h-86zM737 809v90h86v-90h-86zM384 0q-59 0 -110.5 22.5t-90 61t-61 90t-22.5 110.5v125q0 58 22.5 110t61 90.5t90 61t110.5 22.5h514q59 0 111 -22.5t90.5 -61t61 -90.5t22.5 -110v-125q0 -59 -22.5 -110.5t-61 -90t-90.5 -61t-111 -22.5h-514z
M176 409v-125q0 -43 16.5 -80.5t45 -66t66 -45t80.5 -16.5h514q43 0 81 16.5t66.5 45t45 66t16.5 80.5v125q0 43 -16.5 80.5t-45 66t-66.5 45t-81 16.5h-514q-43 0 -80.5 -16.5t-66 -45t-45 -66t-16.5 -80.5z" />
    <glyph glyph-name="Ograve" unicode="&#xd2;" horiz-adv-x="1224" 
d="M516 960l190 -189l-54 -54l-190 189zM384 0q-59 0 -110.5 22.5t-90 61t-61 90t-22.5 110.5v125q0 58 22.5 110t61 90.5t90 61t110.5 22.5h514q59 0 111 -22.5t90.5 -61t61 -90.5t22.5 -110v-125q0 -59 -22.5 -110.5t-61 -90t-90.5 -61t-111 -22.5h-514zM176 409v-125
q0 -43 16.5 -80.5t45 -66t66 -45t80.5 -16.5h514q43 0 81 16.5t66.5 45t45 66t16.5 80.5v125q0 43 -16.5 80.5t-45 66t-66.5 45t-81 16.5h-514q-43 0 -80.5 -16.5t-66 -45t-45 -66t-16.5 -80.5z" />
    <glyph glyph-name="Otilde" unicode="&#xd5;" horiz-adv-x="1224" 
d="M779 736q-20 0 -41 5.5t-43 17.5l-211 107q-13 7 -23.5 9.5t-19.5 2.5q-8 0 -17 -6t-9 -32v-89h-69v90q0 53 26 81q25 25 65 25t83 -23l211 -107q26 -13 43 -13q8 0 17 6t9 32v89h70v-90q0 -53 -27 -80q-24 -25 -64 -25zM384 0q-59 0 -110.5 22.5t-90 61t-61 90
t-22.5 110.5v125q0 58 22.5 110t61 90.5t90 61t110.5 22.5h514q59 0 111 -22.5t90.5 -61t61 -90.5t22.5 -110v-125q0 -59 -22.5 -110.5t-61 -90t-90.5 -61t-111 -22.5h-514zM176 409v-125q0 -43 16.5 -80.5t45 -66t66 -45t80.5 -16.5h514q43 0 81 16.5t66.5 45t45 66
t16.5 80.5v125q0 43 -16.5 80.5t-45 66t-66.5 45t-81 16.5h-514q-43 0 -80.5 -16.5t-66 -45t-45 -66t-16.5 -80.5z" />
    <glyph glyph-name="Scaron" unicode="&#x160;" horiz-adv-x="1070" 
d="M789 966l33 -69l-317 -150l-317 150l33 69l284 -135zM761 0h-661v76h661q24 0 45 9t37 25t25 37t9 45t-9 45.5t-24.5 37.5t-37 25t-45.5 9h-507q-39 0 -74 15t-61.5 41t-41.5 61t-15 75t15 75.5t41 61.5t61 41.5t75 15.5h661v-76h-661q-25 0 -45.5 -9.5t-36 -25
t-24.5 -36.5t-10 -45q4 -50 36 -84t80 -34h507q40 0 75 -15t61 -41t41 -61t15 -75t-15 -75t-41 -61.5t-61 -41.5t-75 -15z" />
    <glyph glyph-name="Uacute" unicode="&#xda;" horiz-adv-x="1062" 
d="M655 882l-190 -189l-54 54l190 189zM184 83q-39 39 -61.5 90.5t-22.5 110.5v409h76v-409q0 -42 16.5 -80t44.5 -66.5t65.5 -45t80.5 -16.5h285q42 0 80 16.5t66.5 44.5t45 65.5t16.5 79.5v411h76v-409q0 -59 -22.5 -110.5t-61.5 -90.5q-38 -38 -89.5 -60.5t-110.5 -22.5
h-283q-60 0 -111.5 22.5t-89.5 60.5z" />
    <glyph glyph-name="Ucircumflex" unicode="&#xdb;" horiz-adv-x="1084" 
d="M532 882l-284 -135l-33 69l317 150l317 -150l-33 -69zM184 83q-39 39 -61.5 90.5t-22.5 110.5v409h76v-409q0 -42 16.5 -80t44.5 -66.5t65.5 -45t80.5 -16.5h285q42 0 80 16.5t66.5 44.5t45 65.5t16.5 79.5v411h76v-409q0 -59 -22.5 -110.5t-61.5 -90.5
q-38 -38 -89.5 -60.5t-110.5 -22.5h-283q-60 0 -111.5 22.5t-89.5 60.5z" />
    <glyph glyph-name="Udieresis" unicode="&#xdc;" horiz-adv-x="1101" 
d="M338 611v90h86v-90h-86zM628 611v90h86v-90h-86zM184 83q-39 39 -61.5 90.5t-22.5 110.5v409h76v-409q0 -42 16.5 -80t44.5 -66.5t65.5 -45t80.5 -16.5h285q42 0 80 16.5t66.5 44.5t45 65.5t16.5 79.5v411h76v-409q0 -59 -22.5 -110.5t-61.5 -90.5q-38 -38 -89.5 -60.5
t-110.5 -22.5h-283q-60 0 -111.5 22.5t-89.5 60.5z" />
    <glyph glyph-name="Ugrave" unicode="&#xd9;" horiz-adv-x="1029" 
d="M429 960l190 -189l-54 -54l-190 189zM184 83q-39 39 -61.5 90.5t-22.5 110.5v409h76v-409q0 -42 16.5 -80t44.5 -66.5t65.5 -45t80.5 -16.5h285q42 0 80 16.5t66.5 44.5t45 65.5t16.5 79.5v411h76v-409q0 -59 -22.5 -110.5t-61.5 -90.5q-38 -38 -89.5 -60.5t-110.5 -22.5
h-283q-60 0 -111.5 22.5t-89.5 60.5z" />
    <glyph glyph-name="Yacute" unicode="&#xdd;" horiz-adv-x="1086" 
d="M653 881l-190 -189l-54 54l190 189zM491 0v220h-106q-60 0 -111.5 22.5t-89.5 60.5q-39 39 -61.5 90.5t-22.5 110.5v189h76v-189q0 -42 16.5 -80t44.5 -66.5t65.5 -45t80.5 -16.5h285q42 0 80 16.5t66.5 44.5t45 65.5t16.5 79.5v191h76v-189q0 -59 -22.5 -110.5
t-61.5 -90.5q-38 -38 -89.5 -60.5t-110.5 -22.5h-101v-220h-76z" />
    <glyph glyph-name="Ydieresis" unicode="&#x178;" horiz-adv-x="1086" 
d="M343 611v90h86v-90h-86zM633 611v90h86v-90h-86zM491 0v220h-106q-60 0 -111.5 22.5t-89.5 60.5q-39 39 -61.5 90.5t-22.5 110.5v189h76v-189q0 -42 16.5 -80t44.5 -66.5t65.5 -45t80.5 -16.5h285q42 0 80 16.5t66.5 44.5t45 65.5t16.5 79.5v191h76v-189
q0 -59 -22.5 -110.5t-61.5 -90.5q-38 -38 -89.5 -60.5t-110.5 -22.5h-101v-220h-76z" />
    <glyph glyph-name="Zcaron" unicode="&#x17d;" horiz-adv-x="1090" 
d="M806 966l33 -69l-317 -150l-317 150l33 69l284 -135zM218 0q-32 0 -56 13t-40.5 33.5t-24.5 46t-8 50.5q0 36 12.5 58.5t28.5 36.5q18 15 41 23l686 239q1 1 9 4t16 9t15 16.5t7 26.5q0 4 -1.5 14t-6.5 20.5t-16.5 18.5t-30.5 8h-753v76h760q42 0 66.5 -19.5t37 -44
t16.5 -46.5t4 -27q0 -35 -10.5 -57t-22.5 -35q-14 -15 -32 -23l-717 -251q-20 -9 -27 -23t-7 -28q0 -23 14.5 -42t40.5 -21h754v-76h-755z" />
    <glyph glyph-name="aacute" unicode="&#xe1;" horiz-adv-x="1160" 
d="M322 0q-68 0 -123 34.5t-81 93.5q-18 39 -18 83q0 45 17.5 83.5t47.5 67t69.5 45t83.5 16.5h596v47q0 30 -12 57t-32.5 46.5t-47 31.5t-56.5 12h-503v76h503q46 0 87 -17.5t71 -48t48 -71t18 -86.5v-471zM240 323q-30 -19 -47 -48t-17 -64q0 -29 11.5 -53.5t31 -42.5
t45 -28.5t54.5 -10.5h596v271h-592q-23 0 -44 -6.5t-38 -17.5zM771 906l-190 -189l-54 54l190 189z" />
    <glyph glyph-name="acircumflex" unicode="&#xe2;" horiz-adv-x="1160" 
d="M322 0q-68 0 -123 34.5t-81 93.5q-18 39 -18 83q0 45 17.5 83.5t47.5 67t69.5 45t83.5 16.5h596v47q0 30 -12 57t-32.5 46.5t-47 31.5t-56.5 12h-503v76h503q46 0 87 -17.5t71 -48t48 -71t18 -86.5v-471zM240 323q-30 -19 -47 -48t-17 -64q0 -29 11.5 -53.5t31 -42.5
t45 -28.5t54.5 -10.5h596v271h-592q-23 0 -44 -6.5t-38 -17.5zM582 882l-284 -135l-33 69l317 150l317 -150l-33 -69z" />
    <glyph glyph-name="adieresis" unicode="&#xe4;" horiz-adv-x="1160" 
d="M322 0q-68 0 -123 34.5t-81 93.5q-18 39 -18 83q0 45 17.5 83.5t47.5 67t69.5 45t83.5 16.5h596v47q0 30 -12 57t-32.5 46.5t-47 31.5t-56.5 12h-503v76h503q46 0 87 -17.5t71 -48t48 -71t18 -86.5v-471zM240 323q-30 -19 -47 -48t-17 -64q0 -29 11.5 -53.5t31 -42.5
t45 -28.5t54.5 -10.5h596v271h-592q-23 0 -44 -6.5t-38 -17.5zM385 777v90h86v-90h-86zM675 777v90h86v-90h-86z" />
    <glyph glyph-name="agrave" unicode="&#xe0;" horiz-adv-x="1160" 
d="M322 0q-68 0 -123 34.5t-81 93.5q-18 39 -18 83q0 45 17.5 83.5t47.5 67t69.5 45t83.5 16.5h596v47q0 30 -12 57t-32.5 46.5t-47 31.5t-56.5 12h-503v76h503q46 0 87 -17.5t71 -48t48 -71t18 -86.5v-471zM240 323q-30 -19 -47 -48t-17 -64q0 -29 11.5 -53.5t31 -42.5
t45 -28.5t54.5 -10.5h596v271h-592q-23 0 -44 -6.5t-38 -17.5zM474 960l190 -189l-54 -54l-190 189z" />
    <glyph glyph-name="aring" unicode="&#xe5;" horiz-adv-x="1160" 
d="M322 0q-68 0 -123 34.5t-81 93.5q-18 39 -18 83q0 45 17.5 83.5t47.5 67t69.5 45t83.5 16.5h596v47q0 30 -12 57t-32.5 46.5t-47 31.5t-56.5 12h-503v76h503q46 0 87 -17.5t71 -48t48 -71t18 -86.5v-471zM240 323q-30 -19 -47 -48t-17 -64q0 -29 11.5 -53.5t31 -42.5
t45 -28.5t54.5 -10.5h596v271h-592q-23 0 -44 -6.5t-38 -17.5zM656 755h-148q-53 0 -90 37q-17 17 -27 40.5t-10 49.5v13q0 27 10 50t27 40.5t40.5 28t49.5 10.5h148q26 0 49.5 -10t41 -27.5t27.5 -41t10 -50.5v-13q0 -26 -10 -49t-27.5 -40.5t-40.5 -27.5t-50 -10zM460 944
q-20 -20 -20 -49v-13q0 -29 19.5 -48.5t48.5 -19.5h148q28 0 48.5 19.5t20.5 48.5v13q0 29 -20.5 49t-48.5 20h-148q-28 0 -48 -20z" />
    <glyph glyph-name="atilde" unicode="&#xe3;" horiz-adv-x="1160" 
d="M322 0q-68 0 -123 34.5t-81 93.5q-18 39 -18 83q0 45 17.5 83.5t47.5 67t69.5 45t83.5 16.5h596v47q0 30 -12 57t-32.5 46.5t-47 31.5t-56.5 12h-503v76h503q46 0 87 -17.5t71 -48t48 -71t18 -86.5v-471zM240 323q-30 -19 -47 -48t-17 -64q0 -29 11.5 -53.5t31 -42.5
t45 -28.5t54.5 -10.5h596v271h-592q-23 0 -44 -6.5t-38 -17.5zM737 736q-20 0 -41 5.5t-43 17.5l-211 107q-13 7 -23.5 9.5t-19.5 2.5q-8 0 -17 -6t-9 -32v-89h-69v90q0 53 26 81q25 25 65 25t83 -23l211 -107q26 -13 43 -13q8 0 17 6t9 32v89h70v-90q0 -53 -27 -80
q-24 -25 -64 -25z" />
    <glyph glyph-name="ccedilla" unicode="&#xe7;" horiz-adv-x="1143" 
d="M519 -240h-98v71h102q26 0 43 20t17 45v104h72v-104q0 -26 -10.5 -50.5t-29 -43.5t-43.5 -30.5t-53 -11.5zM184 83q-39 39 -61.5 90.5t-22.5 110.5v125q0 58 22.5 110t61 90.5t90.5 61t111 22.5h584v-76h-584q-43 0 -81 -16.5t-66.5 -45t-45 -66t-16.5 -80.5v-125
q0 -42 16.5 -80t44.5 -66.5t65.5 -45t80.5 -16.5h586v-76h-584q-59 0 -111 22.5t-90 60.5z" />
    <glyph glyph-name="eacute" unicode="&#xe9;" horiz-adv-x="1064" 
d="M101 483q0 44 18.5 82.5t49 66.5t70.5 44t85 16h468q44 0 83.5 -16.5t69.5 -45.5t48 -67.5t18 -82.5q0 -45 -18 -83.5t-49 -67t-71 -45t-85 -16.5h-611v-95q4 -26 17.5 -44t33.5 -30t45 -17.5t51 -5.5h634v-76h-639q-38 0 -76.5 12t-69.5 34t-51 54t-21 73v310zM324 616
q-22 0 -48 -10t-48 -27.5t-36.5 -42t-14.5 -53.5v-139h615q28 0 54 10.5t46 29t31.5 43t11.5 53.5t-12 54t-32.5 43t-47 28.5t-55.5 10.5h-464zM661 904l-190 -189l-54 54l190 189z" />
    <glyph glyph-name="ecircumflex" unicode="&#xea;" horiz-adv-x="1061" 
d="M102 483q0 44 18.5 82.5t49 66.5t70.5 44t85 16h468q44 0 83.5 -16.5t69.5 -45.5t48 -67.5t18 -82.5q0 -45 -18 -83.5t-49 -67t-71 -45t-85 -16.5h-611v-95q4 -26 17.5 -44t33.5 -30t45 -17.5t51 -5.5h634v-76h-639q-38 0 -76.5 12t-69.5 34t-51 54t-21 73v310zM325 616
q-22 0 -48 -10t-48 -27.5t-36.5 -42t-14.5 -53.5v-139h615q28 0 54 10.5t46 29t31.5 43t11.5 53.5t-12 54t-32.5 43t-47 28.5t-55.5 10.5h-464zM593 882l-284 -135l-33 69l317 150l317 -150l-33 -69z" />
    <glyph glyph-name="edieresis" unicode="&#xeb;" horiz-adv-x="1061" 
d="M102 483q0 44 18.5 82.5t49 66.5t70.5 44t85 16h468q44 0 83.5 -16.5t69.5 -45.5t48 -67.5t18 -82.5q0 -45 -18 -83.5t-49 -67t-71 -45t-85 -16.5h-611v-95q4 -26 17.5 -44t33.5 -30t45 -17.5t51 -5.5h634v-76h-639q-38 0 -76.5 12t-69.5 34t-51 54t-21 73v310zM325 616
q-22 0 -48 -10t-48 -27.5t-36.5 -42t-14.5 -53.5v-139h615q28 0 54 10.5t46 29t31.5 43t11.5 53.5t-12 54t-32.5 43t-47 28.5t-55.5 10.5h-464zM348 807v90h86v-90h-86zM638 807v90h86v-90h-86z" />
    <glyph glyph-name="egrave" unicode="&#xe8;" horiz-adv-x="1152" 
d="M485 960l190 -189l-54 -54l-190 189zM101 483q0 44 18.5 82.5t49 66.5t70.5 44t85 16h468q44 0 83.5 -16.5t69.5 -45.5t48 -67.5t18 -82.5q0 -45 -18 -83.5t-49 -67t-71 -45t-85 -16.5h-611v-95q4 -26 17.5 -44t33.5 -30t45 -17.5t51 -5.5h634v-76h-639q-38 0 -76.5 12
t-69.5 34t-51 54t-21 73v310zM324 616q-22 0 -48 -10t-48 -27.5t-36.5 -42t-14.5 -53.5v-139h615q28 0 54 10.5t46 29t31.5 43t11.5 53.5t-12 54t-32.5 43t-47 28.5t-55.5 10.5h-464z" />
    <glyph glyph-name="iacute" unicode="&#xed;" horiz-adv-x="265" 
d="M100 0v693h76v-693h-76zM262 904l-190 -189l-54 54l190 189z" />
    <glyph glyph-name="icircumflex" unicode="&#xee;" horiz-adv-x="265" 
d="M100 0v693h76v-693h-76zM137 880l-284 -135l-33 69l317 150l317 -150l-33 -69z" />
    <glyph glyph-name="idieresis" unicode="&#xef;" horiz-adv-x="265" 
d="M100 0v693h76v-693h-76zM-48 790v90h86v-90h-86zM242 790v90h86v-90h-86z" />
    <glyph glyph-name="igrave" unicode="&#xec;" horiz-adv-x="265" 
d="M100 0v693h76v-693h-76zM73 958l190 -189l-54 -54l-190 189z" />
    <glyph glyph-name="ntilde" unicode="&#xf1;" 
d="M668 693q58 0 110 -22.5t90.5 -61t61 -90.5t22.5 -111v-408h-76v408q0 42 -16.5 80t-44.5 66.5t-65.5 45.5t-79.5 17h-494v-617h-76v693h568zM656 736q-20 0 -41 5.5t-43 17.5l-211 107q-13 7 -23.5 9.5t-19.5 2.5q-8 0 -17 -6t-9 -32v-89h-69v90q0 53 26 81q25 25 65 25
t83 -23l211 -107q26 -13 43 -13q8 0 17 6t9 32v89h70v-90q0 -53 -27 -80q-24 -25 -64 -25z" />
    <glyph glyph-name="oacute" unicode="&#xf3;" horiz-adv-x="1224" 
d="M813 906l-190 -189l-54 54l190 189zM384 0q-59 0 -110.5 22.5t-90 61t-61 90t-22.5 110.5v125q0 58 22.5 110t61 90.5t90 61t110.5 22.5h514q59 0 111 -22.5t90.5 -61t61 -90.5t22.5 -110v-125q0 -59 -22.5 -110.5t-61 -90t-90.5 -61t-111 -22.5h-514zM176 409v-125
q0 -43 16.5 -80.5t45 -66t66 -45t80.5 -16.5h514q43 0 81 16.5t66.5 45t45 66t16.5 80.5v125q0 43 -16.5 80.5t-45 66t-66.5 45t-81 16.5h-514q-43 0 -80.5 -16.5t-66 -45t-45 -66t-16.5 -80.5z" />
    <glyph glyph-name="ocircumflex" unicode="&#xf4;" horiz-adv-x="1224" 
d="M624 882l-284 -135l-33 69l317 150l317 -150l-33 -69zM384 0q-59 0 -110.5 22.5t-90 61t-61 90t-22.5 110.5v125q0 58 22.5 110t61 90.5t90 61t110.5 22.5h514q59 0 111 -22.5t90.5 -61t61 -90.5t22.5 -110v-125q0 -59 -22.5 -110.5t-61 -90t-90.5 -61t-111 -22.5h-514z
M176 409v-125q0 -43 16.5 -80.5t45 -66t66 -45t80.5 -16.5h514q43 0 81 16.5t66.5 45t45 66t16.5 80.5v125q0 43 -16.5 80.5t-45 66t-66.5 45t-81 16.5h-514q-43 0 -80.5 -16.5t-66 -45t-45 -66t-16.5 -80.5z" />
    <glyph glyph-name="odieresis" unicode="&#xf6;" horiz-adv-x="1287" 
d="M384 0q-59 0 -110.5 22.5t-90 61t-61 90t-22.5 110.5v125q0 58 22.5 110t61 90.5t90 61t110.5 22.5h514q59 0 111 -22.5t90.5 -61t61 -90.5t22.5 -110v-125q0 -59 -22.5 -110.5t-61 -90t-90.5 -61t-111 -22.5h-514zM176 409v-125q0 -43 16.5 -80.5t45 -66t66 -45
t80.5 -16.5h514q43 0 81 16.5t66.5 45t45 66t16.5 80.5v125q0 43 -16.5 80.5t-45 66t-66.5 45t-81 16.5h-514q-43 0 -80.5 -16.5t-66 -45t-45 -66t-16.5 -80.5zM462 807v90h86v-90h-86zM752 807v90h86v-90h-86z" />
    <glyph glyph-name="ograve" unicode="&#xf2;" horiz-adv-x="1224" 
d="M516 960l190 -189l-54 -54l-190 189zM384 0q-59 0 -110.5 22.5t-90 61t-61 90t-22.5 110.5v125q0 58 22.5 110t61 90.5t90 61t110.5 22.5h514q59 0 111 -22.5t90.5 -61t61 -90.5t22.5 -110v-125q0 -59 -22.5 -110.5t-61 -90t-90.5 -61t-111 -22.5h-514zM176 409v-125
q0 -43 16.5 -80.5t45 -66t66 -45t80.5 -16.5h514q43 0 81 16.5t66.5 45t45 66t16.5 80.5v125q0 43 -16.5 80.5t-45 66t-66.5 45t-81 16.5h-514q-43 0 -80.5 -16.5t-66 -45t-45 -66t-16.5 -80.5z" />
    <glyph glyph-name="otilde" unicode="&#xf5;" horiz-adv-x="1224" 
d="M779 736q-20 0 -41 5.5t-43 17.5l-211 107q-13 7 -23.5 9.5t-19.5 2.5q-8 0 -17 -6t-9 -32v-89h-69v90q0 53 26 81q25 25 65 25t83 -23l211 -107q26 -13 43 -13q8 0 17 6t9 32v89h70v-90q0 -53 -27 -80q-24 -25 -64 -25zM384 0q-59 0 -110.5 22.5t-90 61t-61 90
t-22.5 110.5v125q0 58 22.5 110t61 90.5t90 61t110.5 22.5h514q59 0 111 -22.5t90.5 -61t61 -90.5t22.5 -110v-125q0 -59 -22.5 -110.5t-61 -90t-90.5 -61t-111 -22.5h-514zM176 409v-125q0 -43 16.5 -80.5t45 -66t66 -45t80.5 -16.5h514q43 0 81 16.5t66.5 45t45 66
t16.5 80.5v125q0 43 -16.5 80.5t-45 66t-66.5 45t-81 16.5h-514q-43 0 -80.5 -16.5t-66 -45t-45 -66t-16.5 -80.5z" />
    <glyph glyph-name="scaron" unicode="&#x161;" horiz-adv-x="1070" 
d="M796 966l33 -69l-317 -150l-317 150l33 69l284 -135zM761 0h-661v76h661q24 0 45 9t37 25t25 37t9 45t-9 45.5t-24.5 37.5t-37 25t-45.5 9h-507q-39 0 -74 15t-61.5 41t-41.5 61t-15 75t15 75.5t41 61.5t61 41.5t75 15.5h661v-76h-661q-25 0 -45.5 -9.5t-36 -25
t-24.5 -36.5t-10 -45q4 -50 36 -84t80 -34h507q40 0 75 -15t61 -41t41 -61t15 -75t-15 -75t-41 -61.5t-61 -41.5t-75 -15z" />
    <glyph glyph-name="uacute" unicode="&#xfa;" 
d="M384 0q-59 0 -110.5 22.5t-90 61t-61 90.5t-22.5 111v408h76v-408q0 -42 16.5 -80t44.5 -66.5t65.5 -45.5t79.5 -17h494v617h76v-693h-568zM782 887l-190 -189l-54 54l190 189z" />
    <glyph glyph-name="ucircumflex" unicode="&#xfb;" 
d="M384 0q-59 0 -110.5 22.5t-90 61t-61 90.5t-22.5 111v408h76v-408q0 -42 16.5 -80t44.5 -66.5t65.5 -45.5t79.5 -17h494v617h76v-693h-568zM593 863l-284 -135l-33 69l317 150l317 -150l-33 -69z" />
    <glyph glyph-name="udieresis" unicode="&#xfc;" 
d="M384 0q-59 0 -110.5 22.5t-90 61t-61 90.5t-22.5 111v408h76v-408q0 -42 16.5 -80t44.5 -66.5t65.5 -45.5t79.5 -17h494v617h76v-693h-568zM354 611v90h86v-90h-86zM644 611v90h86v-90h-86z" />
    <glyph glyph-name="ugrave" unicode="&#xf9;" 
d="M485 941l190 -189l-54 -54l-190 189zM384 0q-59 0 -110.5 22.5t-90 61t-61 90.5t-22.5 111v408h76v-408q0 -42 16.5 -80t44.5 -66.5t65.5 -45.5t79.5 -17h494v617h76v-693h-568z" />
    <glyph glyph-name="yacute" unicode="&#xfd;" horiz-adv-x="1182" 
d="M952 693v-409q0 -59 -22.5 -110.5t-61 -90t-90 -61t-110.5 -22.5h-514v76h514q43 0 80.5 16.5t66 45t45 66t16.5 80.5v16h-492q-59 0 -110.5 22.5t-90 61t-61 90.5t-22.5 111v108h76v-108q0 -42 16.5 -80t44.5 -66.5t65.5 -45.5t79.5 -17h494v317h76zM782 906l-190 -189
l-54 54l190 189z" />
    <glyph glyph-name="ydieresis" unicode="&#xff;" horiz-adv-x="1182" 
d="M952 693v-409q0 -59 -22.5 -110.5t-61 -90t-90 -61t-110.5 -22.5h-514v76h514q43 0 80.5 16.5t66 45t45 66t16.5 80.5v16h-492q-59 0 -110.5 22.5t-90 61t-61 90.5t-22.5 111v108h76v-108q0 -42 16.5 -80t44.5 -66.5t65.5 -45.5t79.5 -17h494v317h76zM347 611v90h86v-90
h-86zM637 611v90h86v-90h-86z" />
    <glyph glyph-name="zcaron" unicode="&#x17e;" horiz-adv-x="1090" 
d="M101 0v77l821 540h-819v76h966v-71l-831 -546h817v-76h-954zM846 966l33 -69l-317 -150l-317 150l33 69l284 -135z" />
    <glyph glyph-name="uni00A0" unicode="&#xa0;" horiz-adv-x="375" 
 />
    <glyph glyph-name="Euro" unicode="&#x20ac;" horiz-adv-x="1123" 
d="M435 617q-36 0 -69 -12t-59.5 -33t-45.5 -50t-28 -63h761v-76h-768v-73h768v-76h-762q9 -34 28 -63t45.5 -50t59 -33t68.5 -12h586v-76h-584q-59 0 -111 22.5t-90 60.5q-30 30 -50.5 68.5t-28.5 82.5h-87v76h82v73h-82v76h87q9 49 34 92t62.5 74.5t84 49.5t99.5 18h584
v-76h-584v0z" />
    <glyph glyph-name="Abreve" unicode="&#x102;" horiz-adv-x="1072" 
d="M412 863v-13q0 -29 19.5 -48.5t48.5 -19.5h168q28 0 48.5 19.5t20.5 48.5v13h59v-13q0 -26 -10 -49t-27.5 -40.5t-40.5 -27.5t-50 -10h-168q-53 0 -90 37q-17 17 -27 40.5t-10 49.5v13h59zM923 610q38 -39 60.5 -90.5t22.5 -110.5v-409h-76v318h-754v-318h-76v409
q0 59 22.5 110.5t61.5 90t90.5 61t109.5 22.5h338q59 0 110.5 -22.5t90.5 -60.5zM930 394v17q0 42 -16.5 79.5t-45 65.5t-66.5 44.5t-80 16.5h-340q-42 0 -79.5 -16.5t-65.5 -45t-44.5 -66t-16.5 -80.5v-15h754z" />
    <glyph glyph-name="Amacron" unicode="&#x100;" horiz-adv-x="1072" 
d="M316 824h463v-76h-463v76zM923 610q38 -39 60.5 -90.5t22.5 -110.5v-409h-76v318h-754v-318h-76v409q0 59 22.5 110.5t61.5 90t90.5 61t109.5 22.5h338q59 0 110.5 -22.5t90.5 -60.5zM930 394v17q0 42 -16.5 79.5t-45 65.5t-66.5 44.5t-80 16.5h-340q-42 0 -79.5 -16.5
t-65.5 -45t-44.5 -66t-16.5 -80.5v-15h754z" />
    <glyph glyph-name="Aogonek" unicode="&#x104;" horiz-adv-x="1071" 
d="M923 610q38 -39 60.5 -90.5t22.5 -110.5v-409h-76v318h-754v-318h-76v409q0 59 22.5 110.5t61.5 90t90.5 61t109.5 22.5h338q59 0 110.5 -22.5t90.5 -60.5zM930 394v17q0 42 -16.5 79.5t-45 65.5t-66.5 44.5t-80 16.5h-340q-42 0 -79.5 -16.5t-65.5 -45t-44.5 -66
t-16.5 -80.5v-15h754zM947.428 -182.592q-16.4863 0 -32.1865 5.87207q-15.7012 5.87207 -28.2617 16.0508t-20.0186 24.6631q-7.45703 14.4844 -7.45703 31.71v1.56543q0 26.6211 12.5605 49.7188q12.5605 23.0967 32.9707 38.7559l17.2715 15.6592h86.3535
l-65.1582 -61.8535q-8.63477 -8.6123 -16.0928 -18.3994t-7.45801 -19.9658q0 -4.69727 2.35547 -9.39551q4.70996 -8.6123 10.9902 -10.5693q6.28027 -1.95801 16.4854 -3.52344h150.727v-60.2881h-153.081z" />
    <glyph glyph-name="Cacute" unicode="&#x106;" horiz-adv-x="1143" 
d="M775 906l-190 -189l-54 54l190 189zM184 83q-39 39 -61.5 90.5t-22.5 110.5v125q0 58 22.5 110t61 90.5t90.5 61t111 22.5h584v-76h-584q-43 0 -81 -16.5t-66.5 -45t-45 -66t-16.5 -80.5v-125q0 -42 16.5 -80t44.5 -66.5t65.5 -45t80.5 -16.5h586v-76h-584
q-59 0 -111 22.5t-90 60.5z" />
    <glyph glyph-name="Ccaron" unicode="&#x10c;" horiz-adv-x="1143" 
d="M870 966l33 -69l-317 -150l-317 150l33 69l284 -135zM184 83q-39 39 -61.5 90.5t-22.5 110.5v125q0 58 22.5 110t61 90.5t90.5 61t111 22.5h584v-76h-584q-43 0 -81 -16.5t-66.5 -45t-45 -66t-16.5 -80.5v-125q0 -42 16.5 -80t44.5 -66.5t65.5 -45t80.5 -16.5h586v-76
h-584q-59 0 -111 22.5t-90 60.5z" />
    <glyph glyph-name="Ccircumflex" unicode="&#x108;" horiz-adv-x="1143" 
d="M586 882l-284 -135l-33 69l317 150l317 -150l-33 -69zM184 83q-39 39 -61.5 90.5t-22.5 110.5v125q0 58 22.5 110t61 90.5t90.5 61t111 22.5h584v-76h-584q-43 0 -81 -16.5t-66.5 -45t-45 -66t-16.5 -80.5v-125q0 -42 16.5 -80t44.5 -66.5t65.5 -45t80.5 -16.5h586v-76
h-584q-59 0 -111 22.5t-90 60.5z" />
    <glyph glyph-name="Dcaron" unicode="&#x10e;" horiz-adv-x="1127" 
d="M785 966l33 -69l-317 -150l-317 150l33 69l284 -135zM100 693h619q59 0 110.5 -22.5t90 -61.5t61 -90.5t22.5 -109.5v-125q0 -59 -22.5 -110.5t-61.5 -90t-90.5 -61t-109.5 -22.5h-619v693zM927 411q0 42 -16.5 79.5t-45 65.5t-66.5 44.5t-80 16.5h-543v-541h545
q42 0 79.5 16.5t65.5 45t44.5 66t16.5 80.5v127z" />
    <glyph glyph-name="Dcroat" unicode="&#x110;" horiz-adv-x="1088" 
d="M100 693h619q59 0 110.5 -22.5t90 -61.5t61 -90.5t22.5 -109.5v-125q0 -59 -22.5 -110.5t-61.5 -90t-90.5 -61t-109.5 -22.5h-619v693zM927 411q0 42 -16.5 79.5t-45 65.5t-66.5 44.5t-80 16.5h-543v-541h545q42 0 79.5 16.5t65.5 45t44.5 66t16.5 80.5v127z" />
    <glyph glyph-name="Ecaron" unicode="&#x11a;" horiz-adv-x="1057" 
d="M854 966l33 -69l-317 -150l-317 150l33 69l284 -135zM237 556q-29 -29 -45 -66.5t-16 -80.5v-25h793v-76h-793v-26q0 -42 16.5 -79.5t45 -65.5t66.5 -44.5t80 -16.5h585v-76h-585q-59 0 -110.5 22.5t-90 61.5t-61 90.5t-22.5 109.5v125q0 59 22.5 110.5t61.5 90t90.5 61
t109.5 22.5h585v-76h-585q-43 0 -80.5 -16t-66.5 -45z" />
    <glyph glyph-name="Edotaccent" unicode="&#x116;" horiz-adv-x="1057" 
d="M532 860h132v-109h-132v109zM237 556q-29 -29 -45 -66.5t-16 -80.5v-25h793v-76h-793v-26q0 -42 16.5 -79.5t45 -65.5t66.5 -44.5t80 -16.5h585v-76h-585q-59 0 -110.5 22.5t-90 61.5t-61 90.5t-22.5 109.5v125q0 59 22.5 110.5t61.5 90t90.5 61t109.5 22.5h585v-76h-585
q-43 0 -80.5 -16t-66.5 -45z" />
    <glyph glyph-name="Emacron" unicode="&#x112;" horiz-adv-x="1057" 
d="M359 824h463v-76h-463v76zM237 556q-29 -29 -45 -66.5t-16 -80.5v-25h793v-76h-793v-26q0 -42 16.5 -79.5t45 -65.5t66.5 -44.5t80 -16.5h585v-76h-585q-59 0 -110.5 22.5t-90 61.5t-61 90.5t-22.5 109.5v125q0 59 22.5 110.5t61.5 90t90.5 61t109.5 22.5h585v-76h-585
q-43 0 -80.5 -16t-66.5 -45z" />
    <glyph glyph-name="Eogonek" unicode="&#x118;" horiz-adv-x="1075" 
d="M1041 -134v-77h-195q-21 0 -41 7.5t-36 21t-25.5 32t-9.5 41.5q0 32 15 60.5t38 48.5h-411q-59 0 -110.5 22.5t-90 61.5t-61 90.5t-22.5 109.5v125q0 59 22.5 110.5t61.5 90t90.5 61t109.5 22.5h585v-76h-585q-43 0 -80.5 -16t-66.5 -45t-45 -66.5t-16 -80.5v-25h793v-76
h-793v-26q0 -42 16.5 -79.5t45 -65.5t66.5 -44.5t80 -16.5h585v-76h-62l-58 -55q-11 -11 -20.5 -23.5t-9.5 -25.5q0 -6 3 -12q6 -11 14 -13.5t21 -4.5h192z" />
    <glyph glyph-name="Gbreve" unicode="&#x11e;" horiz-adv-x="1118" 
d="M384 863v-13q0 -29 19.5 -48.5t48.5 -19.5h168q28 0 48.5 19.5t20.5 48.5v13h59v-13q0 -26 -10 -49t-27.5 -40.5t-40.5 -27.5t-50 -10h-168q-53 0 -90 37q-17 17 -27 40.5t-10 49.5v13h59zM722 0h-338q-58 0 -109.5 22.5t-90.5 61t-61.5 90t-22.5 110.5v125
q0 58 22.5 109.5t61 90.5t90 61.5t110.5 22.5h420v-76h-420q-42 0 -80 -16.5t-66.5 -44.5t-45 -65.5t-16.5 -79.5v-127q0 -42 16.5 -80t44.5 -66.5t65.5 -45t79.5 -16.5h340q42 0 80 16.5t66.5 44.5t45 65.5t16.5 79.5v29h-316v76h392v-103q0 -58 -22.5 -109.5t-61 -90.5
t-90 -61.5t-110.5 -22.5z" />
    <glyph glyph-name="Gcircumflex" unicode="&#x11c;" horiz-adv-x="1155" 
d="M1025 0v367h-464v-62h399v-243h-472q-97 0 -158 17.5t-95.5 53t-47 89.5t-12.5 128q0 75 13 129.5t47.5 90t95.5 52t157 16.5h517v62h-527q-116 0 -188 -26t-112 -72.5t-54 -110.5t-14 -141q0 -76 13.5 -140t53.5 -110.5t112 -73t189 -26.5h547zM584 882l-284 -135
l-33 69l317 150l317 -150l-33 -69z" />
    <glyph glyph-name="Gcommaaccent" unicode="&#x122;" horiz-adv-x="1071" 
d="M722 0h-338q-58 0 -109.5 22.5t-90.5 61t-61.5 90t-22.5 110.5v125q0 58 22.5 109.5t61 90.5t90 61.5t110.5 22.5h420v-76h-420q-42 0 -80 -16.5t-66.5 -44.5t-45 -65.5t-16.5 -79.5v-127q0 -42 16.5 -80t44.5 -66.5t65.5 -45t79.5 -16.5h340q42 0 80 16.5t66.5 44.5
t45 65.5t16.5 79.5v29h-316v76h392v-103q0 -58 -22.5 -109.5t-61 -90.5t-90 -61.5t-110.5 -22.5zM445 -211l87 186l69 -32l-87 -186z" />
    <glyph glyph-name="Hcircumflex" unicode="&#x124;" horiz-adv-x="1125" 
d="M525 882l-284 -135l-33 69l317 150l317 -150l-33 -69zM950 693v-693h-77v335h-697v-335h-76v693h76v-282h697v282h77z" />
    <glyph glyph-name="Idotaccent" unicode="&#x130;" horiz-adv-x="271" 
d="M77 890h132v-109h-132v109zM100 0v693h76v-693h-76z" />
    <glyph glyph-name="Imacron" unicode="&#x12a;" horiz-adv-x="451" 
d="M-87 824h463v-76h-463v76zM100 0v693h76v-693h-76z" />
    <glyph glyph-name="Iogonek" unicode="&#x12e;" horiz-adv-x="241" 
d="M100 0v693h76v-693h-76zM123.498 -186.143q-16.6914 0 -32.5869 5.96777q-15.8965 5.96777 -28.6133 16.3115q-12.7168 10.3447 -20.2676 25.0654q-7.5498 14.7207 -7.5498 32.2266v1.59082q0 27.0547 12.7168 50.5283t33.3809 39.3877l17.4863 15.9141h87.4277
l-65.9688 -62.8613q-8.74219 -8.75293 -16.293 -18.6992t-7.55078 -20.291q0 -4.77344 2.38477 -9.54785q4.76855 -8.75293 11.127 -10.7422t16.6904 -3.58105h152.602v-61.2695h-154.985z" />
    <glyph glyph-name="Jcircumflex" unicode="&#x134;" horiz-adv-x="1017" 
d="M184 83q-39 39 -61.5 90.5t-22.5 110.5v59h76v-59q0 -42 16.5 -80t44.5 -66.5t65.5 -45t80.5 -16.5h285q42 0 80 16.5t66.5 44.5t45 65.5t16.5 79.5v411h76v-409q0 -59 -22.5 -110.5t-61.5 -90.5q-38 -38 -89.5 -60.5t-110.5 -22.5h-283q-60 0 -111.5 22.5t-89.5 60.5z
M913 880l-284 -135l-33 69l317 150l317 -150l-33 -69z" />
    <glyph glyph-name="Kcommaaccent" unicode="&#x136;" horiz-adv-x="1040" 
d="M970 599q0 -79 -39.5 -144t-103.5 -102q64 -38 103.5 -103t39.5 -144v-106h-76v106q0 43 -16.5 81t-45 66t-66.5 44.5t-81 16.5h-509v-314h-76v701h76v-310h509q43 0 81 16.5t66.5 45t45 66t16.5 80.5v102h76v-102v0zM431 -151l87 186l69 -32l-87 -186z" />
    <glyph glyph-name="Lcaron" unicode="&#x13d;" horiz-adv-x="1010" 
d="M480 497l55 203h65l-55 -203h-65zM176 693v-408q0 -44 16 -81.5t45 -65.5q29 -29 66.5 -45.5t80.5 -16.5h584v-76h-584q-59 0 -110.5 22.5t-90.5 61.5q-38 38 -60.5 89.5t-22.5 111.5v408h76z" />
    <glyph glyph-name="Nacute" unicode="&#x143;" 
d="M782 906l-190 -189l-54 54l190 189zM811 6q-14 6 -23.5 13t-23.5 24l-477 562q-9 11 -21 15.5t-26 4.5q-23 0 -43 -14t-21 -40v-571h-76v578l1 3q2 28 15 50.5t32.5 38.5t44 24t49.5 8q29 0 56.5 -11.5t47.5 -37.5l477 -562q9 -11 21.5 -16t25.5 -5q23 0 42 14.5t21 40.5
v570h77v-577q-3 -28 -16 -51t-32.5 -39.5t-43.5 -25.5t-49 -9q-31 0 -58 13z" />
    <glyph glyph-name="Ncaron" unicode="&#x147;" 
d="M877 966l33 -69l-317 -150l-317 150l33 69l284 -135zM811 6q-14 6 -23.5 13t-23.5 24l-477 562q-9 11 -21 15.5t-26 4.5q-23 0 -43 -14t-21 -40v-571h-76v578l1 3q2 28 15 50.5t32.5 38.5t44 24t49.5 8q29 0 56.5 -11.5t47.5 -37.5l477 -562q9 -11 21.5 -16t25.5 -5
q23 0 42 14.5t21 40.5v570h77v-577q-3 -28 -16 -51t-32.5 -39.5t-43.5 -25.5t-49 -9q-31 0 -58 13z" />
    <glyph glyph-name="Ncommaaccent" unicode="&#x145;" 
d="M811 6q-14 6 -23.5 13t-23.5 24l-477 562q-9 11 -21 15.5t-26 4.5q-23 0 -43 -14t-21 -40v-571h-76v578l1 3q2 28 15 50.5t32.5 38.5t44 24t49.5 8q29 0 56.5 -11.5t47.5 -37.5l477 -562q9 -11 21.5 -16t25.5 -5q23 0 42 14.5t21 40.5v570h77v-577q-3 -28 -16 -51
t-32.5 -39.5t-43.5 -25.5t-49 -9q-31 0 -58 13zM458 -151l87 186l69 -32l-87 -186z" />
    <glyph glyph-name="Ohungarumlaut" unicode="&#x150;" horiz-adv-x="1224" 
d="M660 906l-190 -189l-54 54l190 189zM880 906l-190 -189l-54 54l190 189zM384 0q-59 0 -110.5 22.5t-90 61t-61 90t-22.5 110.5v125q0 58 22.5 110t61 90.5t90 61t110.5 22.5h514q59 0 111 -22.5t90.5 -61t61 -90.5t22.5 -110v-125q0 -59 -22.5 -110.5t-61 -90t-90.5 -61
t-111 -22.5h-514zM176 409v-125q0 -43 16.5 -80.5t45 -66t66 -45t80.5 -16.5h514q43 0 81 16.5t66.5 45t45 66t16.5 80.5v125q0 43 -16.5 80.5t-45 66t-66.5 45t-81 16.5h-514q-43 0 -80.5 -16.5t-66 -45t-45 -66t-16.5 -80.5z" />
    <glyph glyph-name="Omacron" unicode="&#x14c;" horiz-adv-x="1224" 
d="M422 824h463v-76h-463v76zM384 0q-59 0 -110.5 22.5t-90 61t-61 90t-22.5 110.5v125q0 58 22.5 110t61 90.5t90 61t110.5 22.5h514q59 0 111 -22.5t90.5 -61t61 -90.5t22.5 -110v-125q0 -59 -22.5 -110.5t-61 -90t-90.5 -61t-111 -22.5h-514zM176 409v-125
q0 -43 16.5 -80.5t45 -66t66 -45t80.5 -16.5h514q43 0 81 16.5t66.5 45t45 66t16.5 80.5v125q0 43 -16.5 80.5t-45 66t-66.5 45t-81 16.5h-514q-43 0 -80.5 -16.5t-66 -45t-45 -66t-16.5 -80.5z" />
    <glyph glyph-name="Racute" unicode="&#x154;" horiz-adv-x="1169" 
d="M670 906l-190 -189l-54 54l190 189zM978 331q-50 -48 -122 -59l203 -272h-95l-201 269h-587v-269h-76v693h722q34 0 65.5 -9t57.5 -26q45 -29 72.5 -75.5t27.5 -101.5q0 -44 -17.5 -82.5t-49.5 -67.5zM176 345h650q28 0 54 10.5t45.5 29t31.5 43t12 53.5t-12 54t-32.5 43
t-47 28.5t-55.5 10.5h-646v-272z" />
    <glyph glyph-name="Rcaron" unicode="&#x158;" horiz-adv-x="1169" 
d="M814 966l33 -69l-317 -150l-317 150l33 69l284 -135zM978 331q-50 -48 -122 -59l203 -272h-95l-201 269h-587v-269h-76v693h722q34 0 65.5 -9t57.5 -26q45 -29 72.5 -75.5t27.5 -101.5q0 -44 -17.5 -82.5t-49.5 -67.5zM176 345h650q28 0 54 10.5t45.5 29t31.5 43t12 53.5
t-12 54t-32.5 43t-47 28.5t-55.5 10.5h-646v-272z" />
    <glyph glyph-name="Rcommaaccent" unicode="&#x156;" horiz-adv-x="1124" 
d="M978 331q-50 -48 -122 -59l203 -272h-95l-201 269h-587v-269h-76v693h722q34 0 65.5 -9t57.5 -26q45 -29 72.5 -75.5t27.5 -101.5q0 -44 -17.5 -82.5t-49.5 -67.5zM176 345h650q28 0 54 10.5t45.5 29t31.5 43t12 53.5t-12 54t-32.5 43t-47 28.5t-55.5 10.5h-646v-272z
" />
    <glyph glyph-name="Sacute" unicode="&#x15a;" horiz-adv-x="1094" 
d="M648 906l-190 -189l-54 54l190 189zM761 0h-661v76h661q24 0 45 9t37 25t25 37t9 45t-9 45.5t-24.5 37.5t-37 25t-45.5 9h-507q-39 0 -74 15t-61.5 41t-41.5 61t-15 75t15 75.5t41 61.5t61 41.5t75 15.5h661v-76h-661q-25 0 -45.5 -9.5t-36 -25t-24.5 -36.5t-10 -45
q4 -50 36 -84t80 -34h507q40 0 75 -15t61 -41t41 -61t15 -75t-15 -75t-41 -61.5t-61 -41.5t-75 -15z" />
    <glyph glyph-name="Scedilla" unicode="&#x15e;" horiz-adv-x="1094" 
d="M439 -238h-98v71h102q26 0 43 20t17 45v104h72v-104q0 -26 -10.5 -50.5t-29 -43.5t-43.5 -30.5t-53 -11.5zM761 0h-661v76h661q24 0 45 9t37 25t25 37t9 45t-9 45.5t-24.5 37.5t-37 25t-45.5 9h-507q-39 0 -74 15t-61.5 41t-41.5 61t-15 75t15 75.5t41 61.5t61 41.5
t75 15.5h661v-76h-661q-25 0 -45.5 -9.5t-36 -25t-24.5 -36.5t-10 -45q4 -50 36 -84t80 -34h507q40 0 75 -15t61 -41t41 -61t15 -75t-15 -75t-41 -61.5t-61 -41.5t-75 -15z" />
    <glyph glyph-name="Scedilla" unicode="&#xf6c1;" horiz-adv-x="1094" 
d="M439 -238h-98v71h102q26 0 43 20t17 45v104h72v-104q0 -26 -10.5 -50.5t-29 -43.5t-43.5 -30.5t-53 -11.5zM761 0h-661v76h661q24 0 45 9t37 25t25 37t9 45t-9 45.5t-24.5 37.5t-37 25t-45.5 9h-507q-39 0 -74 15t-61.5 41t-41.5 61t-15 75t15 75.5t41 61.5t61 41.5
t75 15.5h661v-76h-661q-25 0 -45.5 -9.5t-36 -25t-24.5 -36.5t-10 -45q4 -50 36 -84t80 -34h507q40 0 75 -15t61 -41t41 -61t15 -75t-15 -75t-41 -61.5t-61 -41.5t-75 -15z" />
    <glyph glyph-name="Scircumflex" unicode="&#x15c;" horiz-adv-x="1094" 
d="M509 882l-284 -135l-33 69l317 150l317 -150l-33 -69zM761 0h-661v76h661q24 0 45 9t37 25t25 37t9 45t-9 45.5t-24.5 37.5t-37 25t-45.5 9h-507q-39 0 -74 15t-61.5 41t-41.5 61t-15 75t15 75.5t41 61.5t61 41.5t75 15.5h661v-76h-661q-25 0 -45.5 -9.5t-36 -25
t-24.5 -36.5t-10 -45q4 -50 36 -84t80 -34h507q40 0 75 -15t61 -41t41 -61t15 -75t-15 -75t-41 -61.5t-61 -41.5t-75 -15z" />
    <glyph glyph-name="Scommaaccent" unicode="&#x218;" horiz-adv-x="1072" 
d="M761 0h-661v76h661q24 0 45 9t37 25t25 37t9 45t-9 45.5t-24.5 37.5t-37 25t-45.5 9h-507q-39 0 -74 15t-61.5 41t-41.5 61t-15 75t15 75.5t41 61.5t61 41.5t75 15.5h661v-76h-661q-25 0 -45.5 -9.5t-36 -25t-24.5 -36.5t-10 -45q4 -50 36 -84t80 -34h507q40 0 75 -15
t61 -41t41 -61t15 -75t-15 -75t-41 -61.5t-61 -41.5t-75 -15zM421 -223l87 186l69 -32l-87 -186z" />
    <glyph glyph-name="Tcommaaccent" unicode="&#x21a;" horiz-adv-x="1043" 
d="M966 617h-395v-617h-76v617h-395v76h866v-76zM441 -197l87 186l69 -32l-87 -186z" />
    <glyph glyph-name="Ubreve" unicode="&#x16c;" horiz-adv-x="1017" 
d="M372 843v-13q0 -29 19.5 -48.5t48.5 -19.5h168q28 0 48.5 19.5t20.5 48.5v13h59v-13q0 -26 -10 -49t-27.5 -40.5t-40.5 -27.5t-50 -10h-168q-53 0 -90 37q-17 17 -27 40.5t-10 49.5v13h59zM184 83q-39 39 -61.5 90.5t-22.5 110.5v409h76v-409q0 -42 16.5 -80t44.5 -66.5
t65.5 -45t80.5 -16.5h285q42 0 80 16.5t66.5 44.5t45 65.5t16.5 79.5v411h76v-409q0 -59 -22.5 -110.5t-61.5 -90.5q-38 -38 -89.5 -60.5t-110.5 -22.5h-283q-60 0 -111.5 22.5t-89.5 60.5z" />
    <glyph glyph-name="Uhungarumlaut" unicode="&#x170;" horiz-adv-x="1190" 
d="M550 906l-190 -189l-54 54l190 189zM770 906l-190 -189l-54 54l190 189zM184 83q-39 39 -61.5 90.5t-22.5 110.5v409h76v-409q0 -42 16.5 -80t44.5 -66.5t65.5 -45t80.5 -16.5h285q42 0 80 16.5t66.5 44.5t45 65.5t16.5 79.5v411h76v-409q0 -59 -22.5 -110.5t-61.5 -90.5
q-38 -38 -89.5 -60.5t-110.5 -22.5h-283q-60 0 -111.5 22.5t-89.5 60.5z" />
    <glyph glyph-name="Umacron" unicode="&#x16a;" horiz-adv-x="1017" 
d="M296 824h463v-76h-463v76zM184 83q-39 39 -61.5 90.5t-22.5 110.5v409h76v-409q0 -42 16.5 -80t44.5 -66.5t65.5 -45t80.5 -16.5h285q42 0 80 16.5t66.5 44.5t45 65.5t16.5 79.5v411h76v-409q0 -59 -22.5 -110.5t-61.5 -90.5q-38 -38 -89.5 -60.5t-110.5 -22.5h-283
q-60 0 -111.5 22.5t-89.5 60.5z" />
    <glyph glyph-name="Uogonek" unicode="&#x172;" horiz-adv-x="1058" 
d="M503 -234q-21 0 -41 7.5t-36 20.5t-25.5 31.5t-9.5 40.5v2q0 34 16 63.5t42 49.5l22 20h110l-83 -79q-11 -11 -20.5 -23.5t-9.5 -25.5q0 -6 3 -12q6 -11 14 -13.5t21 -4.5h192v-77h-195zM184 83q-39 39 -61.5 90.5t-22.5 110.5v409h76v-409q0 -42 16.5 -80t44.5 -66.5
t65.5 -45t80.5 -16.5h285q42 0 80 16.5t66.5 44.5t45 65.5t16.5 79.5v411h76v-409q0 -59 -22.5 -110.5t-61.5 -90.5q-38 -38 -89.5 -60.5t-110.5 -22.5h-283q-60 0 -111.5 22.5t-89.5 60.5z" />
    <glyph glyph-name="Uring" unicode="&#x16e;" horiz-adv-x="1190" 
d="M603 709h-148q-53 0 -90 37q-17 17 -27 40.5t-10 49.5v13q0 27 10 50t27 40.5t40.5 28t49.5 10.5h148q26 0 49.5 -10t41 -27.5t27.5 -41t10 -50.5v-13q0 -26 -10 -49t-27.5 -40.5t-40.5 -27.5t-50 -10zM407 898q-20 -20 -20 -49v-13q0 -29 19.5 -48.5t48.5 -19.5h148
q28 0 48.5 19.5t20.5 48.5v13q0 29 -20.5 49t-48.5 20h-148q-28 0 -48 -20zM184 83q-39 39 -61.5 90.5t-22.5 110.5v409h76v-409q0 -42 16.5 -80t44.5 -66.5t65.5 -45t80.5 -16.5h285q42 0 80 16.5t66.5 44.5t45 65.5t16.5 79.5v411h76v-409q0 -59 -22.5 -110.5t-61.5 -90.5
q-38 -38 -89.5 -60.5t-110.5 -22.5h-283q-60 0 -111.5 22.5t-89.5 60.5z" />
    <glyph glyph-name="Zacute" unicode="&#x179;" horiz-adv-x="1090" 
d="M706 906l-190 -189l-54 54l190 189zM218 0q-32 0 -56 13t-40.5 33.5t-24.5 46t-8 50.5q0 36 12.5 58.5t28.5 36.5q18 15 41 23l686 239q1 1 9 4t16 9t15 16.5t7 26.5q0 4 -1.5 14t-6.5 20.5t-16.5 18.5t-30.5 8h-753v76h760q42 0 66.5 -19.5t37 -44t16.5 -46.5t4 -27
q0 -35 -10.5 -57t-22.5 -35q-14 -15 -32 -23l-717 -251q-20 -9 -27 -23t-7 -28q0 -23 14.5 -42t40.5 -21h754v-76h-755z" />
    <glyph glyph-name="Zdotaccent" unicode="&#x17b;" horiz-adv-x="1090" 
d="M457 878h132v-109h-132v109zM218 0q-32 0 -56 13t-40.5 33.5t-24.5 46t-8 50.5q0 36 12.5 58.5t28.5 36.5q18 15 41 23l686 239q1 1 9 4t16 9t15 16.5t7 26.5q0 4 -1.5 14t-6.5 20.5t-16.5 18.5t-30.5 8h-753v76h760q42 0 66.5 -19.5t37 -44t16.5 -46.5t4 -27
q0 -35 -10.5 -57t-22.5 -35q-14 -15 -32 -23l-717 -251q-20 -9 -27 -23t-7 -28q0 -23 14.5 -42t40.5 -21h754v-76h-755z" />
    <glyph glyph-name="abreve" unicode="&#x103;" horiz-adv-x="1160" 
d="M322 0q-68 0 -123 34.5t-81 93.5q-18 39 -18 83q0 45 17.5 83.5t47.5 67t69.5 45t83.5 16.5h596v47q0 30 -12 57t-32.5 46.5t-47 31.5t-56.5 12h-503v76h503q46 0 87 -17.5t71 -48t48 -71t18 -86.5v-471zM240 323q-30 -19 -47 -48t-17 -64q0 -29 11.5 -53.5t31 -42.5
t45 -28.5t54.5 -10.5h596v271h-592q-23 0 -44 -6.5t-38 -17.5zM436 863v-13q0 -29 19.5 -48.5t48.5 -19.5h168q28 0 48.5 19.5t20.5 48.5v13h59v-13q0 -26 -10 -49t-27.5 -40.5t-40.5 -27.5t-50 -10h-168q-53 0 -90 37q-17 17 -27 40.5t-10 49.5v13h59z" />
    <glyph glyph-name="amacron" unicode="&#x101;" horiz-adv-x="1160" 
d="M322 0q-68 0 -123 34.5t-81 93.5q-18 39 -18 83q0 45 17.5 83.5t47.5 67t69.5 45t83.5 16.5h596v47q0 30 -12 57t-32.5 46.5t-47 31.5t-56.5 12h-503v76h503q46 0 87 -17.5t71 -48t48 -71t18 -86.5v-471zM240 323q-30 -19 -47 -48t-17 -64q0 -29 11.5 -53.5t31 -42.5
t45 -28.5t54.5 -10.5h596v271h-592q-23 0 -44 -6.5t-38 -17.5zM341 824h463v-76h-463v76z" />
    <glyph glyph-name="aogonek" unicode="&#x105;" horiz-adv-x="1083" 
d="M322 0q-68 0 -123 34.5t-81 93.5q-18 39 -18 83q0 45 17.5 83.5t47.5 67t69.5 45t83.5 16.5h596v47q0 30 -12 57t-32.5 46.5t-47 31.5t-56.5 12h-503v76h503q46 0 87 -17.5t71 -48t48 -71t18 -86.5v-471zM240 323q-30 -19 -47 -48t-17 -64q0 -29 11.5 -53.5t31 -42.5
t45 -28.5t54.5 -10.5h596v271h-592q-23 0 -44 -6.5t-38 -17.5zM913.759 -198.317q-18.4004 0 -35.9248 6.57422t-31.5439 17.9697q-14.0195 11.3965 -22.3438 27.6133t-8.32422 35.502v1.75293q0 29.8037 14.0195 55.6631t36.8018 43.3906l19.2764 17.5322h96.3838
l-72.7256 -69.251q-9.63867 -9.6416 -17.9629 -20.5996q-8.32422 -10.957 -8.32422 -22.3525q0 -5.25977 2.62891 -10.5195q5.25684 -9.6416 12.2666 -11.834q7.00977 -2.19141 18.4014 -3.94434h168.234v-67.4971h-170.863z" />
    <glyph glyph-name="cacute" unicode="&#x107;" horiz-adv-x="1143" 
d="M775 906l-190 -189l-54 54l190 189zM184 83q-39 39 -61.5 90.5t-22.5 110.5v125q0 58 22.5 110t61 90.5t90.5 61t111 22.5h584v-76h-584q-43 0 -81 -16.5t-66.5 -45t-45 -66t-16.5 -80.5v-125q0 -42 16.5 -80t44.5 -66.5t65.5 -45t80.5 -16.5h586v-76h-584
q-59 0 -111 22.5t-90 60.5z" />
    <glyph glyph-name="ccaron" unicode="&#x10d;" horiz-adv-x="1143" 
d="M870 966l33 -69l-317 -150l-317 150l33 69l284 -135zM184 83q-39 39 -61.5 90.5t-22.5 110.5v125q0 58 22.5 110t61 90.5t90.5 61t111 22.5h584v-76h-584q-43 0 -81 -16.5t-66.5 -45t-45 -66t-16.5 -80.5v-125q0 -42 16.5 -80t44.5 -66.5t65.5 -45t80.5 -16.5h586v-76
h-584q-59 0 -111 22.5t-90 60.5z" />
    <glyph glyph-name="ccircumflex" unicode="&#x109;" horiz-adv-x="1143" 
d="M586 882l-284 -135l-33 69l317 150l317 -150l-33 -69zM184 83q-39 39 -61.5 90.5t-22.5 110.5v125q0 58 22.5 110t61 90.5t90.5 61t111 22.5h584v-76h-584q-43 0 -81 -16.5t-66.5 -45t-45 -66t-16.5 -80.5v-125q0 -42 16.5 -80t44.5 -66.5t65.5 -45t80.5 -16.5h586v-76
h-584q-59 0 -111 22.5t-90 60.5z" />
    <glyph glyph-name="commaaccent" unicode="&#xf004;" horiz-adv-x="270" 
d="M48 -151l87 186l69 -32l-87 -186z" />
    <glyph glyph-name="commaaccent" unicode="&#xf6c3;" horiz-adv-x="270" 
d="M48 -151l87 186l69 -32l-87 -186z" />
    <glyph glyph-name="dcaron" unicode="&#x10f;" horiz-adv-x="1110" 
d="M798 966l33 -69l-317 -150l-317 150l33 69l284 -135zM100 693h619q59 0 110.5 -22.5t90 -61.5t61 -90.5t22.5 -109.5v-125q0 -59 -22.5 -110.5t-61.5 -90t-90.5 -61t-109.5 -22.5h-619v693zM927 411q0 42 -16.5 79.5t-45 65.5t-66.5 44.5t-80 16.5h-543v-541h545
q42 0 79.5 16.5t65.5 45t44.5 66t16.5 80.5v127z" />
    <glyph glyph-name="dcroat" unicode="&#x111;" horiz-adv-x="1087" 
d="M100 693h619q59 0 110.5 -22.5t90 -61.5t61 -90.5t22.5 -109.5v-125q0 -59 -22.5 -110.5t-61.5 -90t-90.5 -61t-109.5 -22.5h-619v693zM927 411q0 42 -16.5 79.5t-45 65.5t-66.5 44.5t-80 16.5h-543v-541h545q42 0 79.5 16.5t65.5 45t44.5 66t16.5 80.5v127z" />
    <glyph glyph-name="dotlessj" unicode="&#xf6be;" horiz-adv-x="1032" 
d="M173 83q-39 39 -61.5 90.5t-22.5 110.5v59h76v-59q0 -42 16.5 -80t44.5 -66.5t65.5 -45t80.5 -16.5h285q42 0 80 16.5t66.5 44.5t45 65.5t16.5 79.5v411h76v-409q0 -59 -22.5 -110.5t-61.5 -90.5q-38 -38 -89.5 -60.5t-110.5 -22.5h-283q-60 0 -111.5 22.5t-89.5 60.5z
" />
    <glyph glyph-name="dotlessj" unicode="&#xfb0f;" horiz-adv-x="1032" 
d="M173 83q-39 39 -61.5 90.5t-22.5 110.5v59h76v-59q0 -42 16.5 -80t44.5 -66.5t65.5 -45t80.5 -16.5h285q42 0 80 16.5t66.5 44.5t45 65.5t16.5 79.5v411h76v-409q0 -59 -22.5 -110.5t-61.5 -90.5q-38 -38 -89.5 -60.5t-110.5 -22.5h-283q-60 0 -111.5 22.5t-89.5 60.5z
" />
    <glyph glyph-name="ecaron" unicode="&#x11b;" horiz-adv-x="1152" 
d="M81 483q0 44 18.5 82.5t49 66.5t70.5 44t85 16h468q44 0 83.5 -16.5t69.5 -45.5t48 -67.5t18 -82.5q0 -45 -18 -83.5t-49 -67t-71 -45t-85 -16.5h-611v-95q4 -26 17.5 -44t33.5 -30t45 -17.5t51 -5.5h634v-76h-639q-38 0 -76.5 12t-69.5 34t-51 54t-21 73v310zM304 616
q-22 0 -48 -10t-48 -27.5t-36.5 -42t-14.5 -53.5v-139h615q28 0 54 10.5t46 29t31.5 43t11.5 53.5t-12 54t-32.5 43t-47 28.5t-55.5 10.5h-464zM796 966l33 -69l-317 -150l-317 150l33 69l284 -135z" />
    <glyph glyph-name="edotaccent" unicode="&#x117;" horiz-adv-x="1127" 
d="M81 483q0 44 18.5 82.5t49 66.5t70.5 44t85 16h468q44 0 83.5 -16.5t69.5 -45.5t48 -67.5t18 -82.5q0 -45 -18 -83.5t-49 -67t-71 -45t-85 -16.5h-611v-95q4 -26 17.5 -44t33.5 -30t45 -17.5t51 -5.5h634v-76h-639q-38 0 -76.5 12t-69.5 34t-51 54t-21 73v310zM304 616
q-22 0 -48 -10t-48 -27.5t-36.5 -42t-14.5 -53.5v-139h615q28 0 54 10.5t46 29t31.5 43t11.5 53.5t-12 54t-32.5 43t-47 28.5t-55.5 10.5h-464zM465 860h132v-109h-132v109z" />
    <glyph glyph-name="emacron" unicode="&#x113;" horiz-adv-x="1152" 
d="M81 483q0 44 18.5 82.5t49 66.5t70.5 44t85 16h468q44 0 83.5 -16.5t69.5 -45.5t48 -67.5t18 -82.5q0 -45 -18 -83.5t-49 -67t-71 -45t-85 -16.5h-611v-95q4 -26 17.5 -44t33.5 -30t45 -17.5t51 -5.5h634v-76h-639q-38 0 -76.5 12t-69.5 34t-51 54t-21 73v310zM304 616
q-22 0 -48 -10t-48 -27.5t-36.5 -42t-14.5 -53.5v-139h615q28 0 54 10.5t46 29t31.5 43t11.5 53.5t-12 54t-32.5 43t-47 28.5t-55.5 10.5h-464zM302 824h463v-76h-463v76z" />
    <glyph glyph-name="eogonek" unicode="&#x119;" horiz-adv-x="1122" 
d="M101 483q0 44 18.5 82.5t49 66.5t70.5 44t85 16h468q44 0 83.5 -16.5t69.5 -45.5t48 -67.5t18 -82.5q0 -45 -18 -83.5t-49 -67t-71 -45t-85 -16.5h-611v-95q4 -26 17.5 -44t33.5 -30t45 -17.5t51 -5.5h634v-76h-639q-38 0 -76.5 12t-69.5 34t-51 54t-21 73v310zM324 616
q-22 0 -48 -10t-48 -27.5t-36.5 -42t-14.5 -53.5v-139h615q28 0 54 10.5t46 29t31.5 43t11.5 53.5t-12 54t-32.5 43t-47 28.5t-55.5 10.5h-464zM523 -234q-21 0 -41 7.5t-36 20.5t-25.5 31.5t-9.5 40.5v2q0 34 16 63.5t42 49.5l22 20h110l-83 -79q-11 -11 -20.5 -23.5
t-9.5 -25.5q0 -6 3 -12q6 -11 14 -13.5t21 -4.5h192v-77h-195z" />
    <glyph glyph-name="gbreve" unicode="&#x11f;" horiz-adv-x="1155" 
d="M448 843v-13q0 -29 19.5 -48.5t48.5 -19.5h168q28 0 48.5 19.5t20.5 48.5v13h59v-13q0 -26 -10 -49t-27.5 -40.5t-40.5 -27.5t-50 -10h-168q-53 0 -90 37q-17 17 -27 40.5t-10 49.5v13h59z" />
    <glyph glyph-name="gcircumflex" unicode="&#x11d;" horiz-adv-x="1155" 
d="M584 882l-284 -135l-33 69l317 150l317 -150l-33 -69z" />
    <glyph glyph-name="gcommaaccent" unicode="&#x123;" horiz-adv-x="1062" 
d="M184 83q-39 39 -61.5 90.5t-22.5 110.5v125q0 58 22.5 110t61 90.5t90.5 61t111 22.5h584v-76h-584q-43 0 -81 -16.5t-66.5 -44.5t-45 -65.5t-16.5 -80.5v-126q0 -42 16.5 -80t44.5 -66.5t65.5 -45t80.5 -16.5h510v221h-447v76h523v-373h-584q-59 0 -111 22.5t-90 60.5z
M496 -217l87 186l69 -32l-87 -186z" />
    <glyph glyph-name="hcircumflex" unicode="&#x125;" 
d="M868 609q39 -38 61.5 -90t22.5 -111v-408h-76v408q0 43 -16.5 81t-45 66.5t-66.5 45t-81 16.5h-283q-43 0 -80.5 -16.5t-66 -45t-45 -66.5t-16.5 -81v-408h-76v859h76v-258q2 2 3.5 4t3.5 4q39 39 90.5 61.5t110.5 22.5h283q59 0 111 -22.5t90 -61.5zM563 882l-284 -135
l-33 69l317 150l317 -150l-33 -69z" />
    <glyph glyph-name="imacron" unicode="&#x12b;" horiz-adv-x="465" 
d="M-90 814h463v-76h-463v76zM100 0v693h76v-693h-76z" />
    <glyph glyph-name="iogonek" unicode="&#x12f;" horiz-adv-x="241" 
d="M100 0v693h76v-693h-76zM121.762 -175.084q-15.5283 0 -30.3174 5.55371q-14.7891 5.55273 -26.6201 15.1787q-11.8311 9.625 -18.8555 23.3232q-7.02441 13.6973 -7.02441 29.9863v1.48145q0 25.1738 11.8311 47.0166q11.8311 21.8418 31.0566 36.6504l16.2676 14.8086
h81.3379l-61.373 -58.4932q-8.13379 -8.14453 -15.1592 -17.4004q-7.02441 -9.25488 -7.02441 -18.8799q0 -4.44336 2.21875 -8.88574q4.43652 -8.14453 10.3516 -9.99512q5.91602 -1.85156 15.5283 -3.33203h141.973v-57.0127h-144.19z" />
    <glyph glyph-name="jcircumflex" unicode="&#x135;" horiz-adv-x="1060" 
d="M224 693h728v-409q0 -59 -22.5 -110.5t-61.5 -90.5q-38 -38 -89.5 -60.5t-110.5 -22.5h-283q-60 0 -111.5 22.5t-89.5 60.5q-39 39 -61.5 90.5t-22.5 110.5v59h76v-59q0 -42 16.5 -80t44.5 -66.5t65.5 -45t80.5 -16.5h285q42 0 80 16.5t66.5 44.5t45 65.5t16.5 79.5v335
h-652v76zM579 880l-284 -135l-33 69l317 150l317 -150l-33 -69z" />
    <glyph glyph-name="kcommaaccent" unicode="&#x137;" horiz-adv-x="1087" 
d="M739 384q52 -8 96 -33t76 -62.5t50.5 -85t18.5 -100.5v-103h-76v105q0 42 -16.5 79.5t-45 65.5t-66.5 44.5t-80 16.5h-520v-311h-76v701h76v-313h465l266 314h105l-273 -318v0zM412 -151l87 186l69 -32l-87 -186z" />
    <glyph glyph-name="lcaron" unicode="&#x13e;" horiz-adv-x="993" 
d="M176 693v-408q0 -44 16 -81.5t45 -65.5q29 -29 66.5 -45.5t80.5 -16.5h584v-76h-584q-59 0 -110.5 22.5t-90.5 61.5q-38 38 -60.5 89.5t-22.5 111.5v408h76zM422 954l33 -69l-317 -150l-317 150l33 69l284 -135z" />
    <glyph glyph-name="nacute" unicode="&#x144;" horiz-adv-x="1027" 
d="M668 693q58 0 110 -22.5t90.5 -61t61 -90.5t22.5 -111v-408h-76v408q0 42 -16.5 80t-44.5 66.5t-65.5 45.5t-79.5 17h-494v-617h-76v693h568zM637 906l-190 -189l-54 54l190 189z" />
    <glyph glyph-name="ncaron" unicode="&#x148;" horiz-adv-x="1031" 
d="M668 693q58 0 110 -22.5t90.5 -61t61 -90.5t22.5 -111v-408h-76v408q0 42 -16.5 80t-44.5 66.5t-65.5 45.5t-79.5 17h-494v-617h-76v693h568zM774 966l33 -69l-317 -150l-317 150l33 69l284 -135z" />
    <glyph glyph-name="ncommaaccent" unicode="&#x146;" horiz-adv-x="1041" 
d="M668 693q58 0 110 -22.5t90.5 -61t61 -90.5t22.5 -111v-408h-76v408q0 42 -16.5 80t-44.5 66.5t-65.5 45.5t-79.5 17h-494v-617h-76v693h568zM425 -151l87 186l69 -32l-87 -186z" />
    <glyph glyph-name="ohungarumlaut" unicode="&#x151;" horiz-adv-x="1224" 
d="M657 906l-190 -189l-54 54l190 189zM877 906l-190 -189l-54 54l190 189zM384 0q-59 0 -110.5 22.5t-90 61t-61 90t-22.5 110.5v125q0 58 22.5 110t61 90.5t90 61t110.5 22.5h514q59 0 111 -22.5t90.5 -61t61 -90.5t22.5 -110v-125q0 -59 -22.5 -110.5t-61 -90t-90.5 -61
t-111 -22.5h-514zM176 409v-125q0 -43 16.5 -80.5t45 -66t66 -45t80.5 -16.5h514q43 0 81 16.5t66.5 45t45 66t16.5 80.5v125q0 43 -16.5 80.5t-45 66t-66.5 45t-81 16.5h-514q-43 0 -80.5 -16.5t-66 -45t-45 -66t-16.5 -80.5z" />
    <glyph glyph-name="omacron" unicode="&#x14d;" horiz-adv-x="1224" 
d="M411 824h463v-76h-463v76zM384 0q-59 0 -110.5 22.5t-90 61t-61 90t-22.5 110.5v125q0 58 22.5 110t61 90.5t90 61t110.5 22.5h514q59 0 111 -22.5t90.5 -61t61 -90.5t22.5 -110v-125q0 -59 -22.5 -110.5t-61 -90t-90.5 -61t-111 -22.5h-514zM176 409v-125
q0 -43 16.5 -80.5t45 -66t66 -45t80.5 -16.5h514q43 0 81 16.5t66.5 45t45 66t16.5 80.5v125q0 43 -16.5 80.5t-45 66t-66.5 45t-81 16.5h-514q-43 0 -80.5 -16.5t-66 -45t-45 -66t-16.5 -80.5z" />
    <glyph glyph-name="racute" unicode="&#x155;" horiz-adv-x="953" 
d="M100 0v409q0 58 22.5 110t61 90.5t90 61t110.5 22.5h514v-76h-514q-43 0 -80.5 -16.5t-66 -45t-45 -66t-16.5 -80.5v-409h-76zM675 906l-190 -189l-54 54l190 189z" />
    <glyph glyph-name="rcaron" unicode="&#x159;" horiz-adv-x="953" 
d="M100 0v409q0 58 22.5 110t61 90.5t90 61t110.5 22.5h514v-76h-514q-43 0 -80.5 -16.5t-66 -45t-45 -66t-16.5 -80.5v-409h-76zM811 966l33 -69l-317 -150l-317 150l33 69l284 -135z" />
    <glyph glyph-name="rcommaaccent" unicode="&#x157;" horiz-adv-x="890" 
d="M100 0v409q0 58 22.5 110t61 90.5t90 61t110.5 22.5h514v-76h-514q-43 0 -80.5 -16.5t-66 -45t-45 -66t-16.5 -80.5v-409h-76zM48 -206l87 186l69 -32l-87 -186z" />
    <glyph glyph-name="sacute" unicode="&#x15b;" horiz-adv-x="1018" 
d="M648 906l-190 -189l-54 54l190 189zM761 0h-661v76h661q24 0 45 9t37 25t25 37t9 45t-9 45.5t-24.5 37.5t-37 25t-45.5 9h-507q-39 0 -74 15t-61.5 41t-41.5 61t-15 75t15 75.5t41 61.5t61 41.5t75 15.5h661v-76h-661q-25 0 -45.5 -9.5t-36 -25t-24.5 -36.5t-10 -45
q4 -50 36 -84t80 -34h507q40 0 75 -15t61 -41t41 -61t15 -75t-15 -75t-41 -61.5t-61 -41.5t-75 -15z" />
    <glyph glyph-name="scedilla" unicode="&#x15f;" horiz-adv-x="1094" 
d="M439 -240h-98v71h102q26 0 43 20t17 45v104h72v-104q0 -26 -10.5 -50.5t-29 -43.5t-43.5 -30.5t-53 -11.5z" />
    <glyph glyph-name="scedilla" unicode="&#xf6c2;" horiz-adv-x="1094" 
d="M439 -240h-98v71h102q26 0 43 20t17 45v104h72v-104q0 -26 -10.5 -50.5t-29 -43.5t-43.5 -30.5t-53 -11.5z" />
    <glyph glyph-name="scircumflex" unicode="&#x15d;" horiz-adv-x="1074" 
d="M525 882l-284 -135l-33 69l317 150l317 -150l-33 -69zM761 0h-661v76h661q24 0 45 9t37 25t25 37t9 45t-9 45.5t-24.5 37.5t-37 25t-45.5 9h-507q-39 0 -74 15t-61.5 41t-41.5 61t-15 75t15 75.5t41 61.5t61 41.5t75 15.5h661v-76h-661q-25 0 -45.5 -9.5t-36 -25
t-24.5 -36.5t-10 -45q4 -50 36 -84t80 -34h507q40 0 75 -15t61 -41t41 -61t15 -75t-15 -75t-41 -61.5t-61 -41.5t-75 -15z" />
    <glyph glyph-name="scommaaccent" unicode="&#x219;" horiz-adv-x="1075" 
d="M761 0h-661v76h661q24 0 45 9t37 25t25 37t9 45t-9 45.5t-24.5 37.5t-37 25t-45.5 9h-507q-39 0 -74 15t-61.5 41t-41.5 61t-15 75t15 75.5t41 61.5t61 41.5t75 15.5h661v-76h-661q-25 0 -45.5 -9.5t-36 -25t-24.5 -36.5t-10 -45q4 -50 36 -84t80 -34h507q40 0 75 -15
t61 -41t41 -61t15 -75t-15 -75t-41 -61.5t-61 -41.5t-75 -15zM415 -223l87 186l69 -32l-87 -186z" />
    <glyph glyph-name="tcommaaccent" unicode="&#x21b;" horiz-adv-x="1043" 
d="M838 520h-662v-235q0 -44 16 -81.5t45 -65.5q29 -29 66.5 -45.5t80.5 -16.5h584v-76h-584q-59 0 -110.5 22.5t-90.5 61.5q-38 38 -60.5 89.5t-22.5 111.5v408h76v-97h662v-76zM459 -217l87 186l69 -32l-87 -186z" />
    <glyph glyph-name="ubreve" unicode="&#x16d;" 
d="M384 0q-59 0 -110.5 22.5t-90 61t-61 90.5t-22.5 111v408h76v-408q0 -42 16.5 -80t44.5 -66.5t65.5 -45.5t79.5 -17h494v617h76v-693h-568zM382 833v-13q0 -29 19.5 -48.5t48.5 -19.5h168q28 0 48.5 19.5t20.5 48.5v13h59v-13q0 -26 -10 -49t-27.5 -40.5t-40.5 -27.5
t-50 -10h-168q-53 0 -90 37q-17 17 -27 40.5t-10 49.5v13h59z" />
    <glyph glyph-name="uhungarumlaut" unicode="&#x171;" horiz-adv-x="1107" 
d="M384 0q-59 0 -110.5 22.5t-90 61t-61 90.5t-22.5 111v408h76v-408q0 -42 16.5 -80t44.5 -66.5t65.5 -45.5t79.5 -17h494v617h76v-693h-568zM579 887l-190 -189l-54 54l190 189zM799 887l-190 -189l-54 54l190 189z" />
    <glyph glyph-name="umacron" unicode="&#x16b;" horiz-adv-x="1036" 
d="M384 0q-59 0 -110.5 22.5t-90 61t-61 90.5t-22.5 111v408h76v-408q0 -42 16.5 -80t44.5 -66.5t65.5 -45.5t79.5 -17h494v617h76v-693h-568zM302 814h463v-76h-463v76z" />
    <glyph glyph-name="uogonek" unicode="&#x173;" 
d="M384 0q-59 0 -110.5 22.5t-90 61t-61 90.5t-22.5 111v408h76v-408q0 -42 16.5 -80t44.5 -66.5t65.5 -45.5t79.5 -17h494v617h76v-693h-568zM539 -219q-21 0 -41 7.5t-36 20.5t-25.5 31.5t-9.5 40.5v2q0 34 16 63.5t42 49.5l22 20h110l-83 -79q-11 -11 -20.5 -23.5
t-9.5 -25.5q0 -6 3 -12q6 -11 14 -13.5t21 -4.5h192v-77h-195z" />
    <glyph glyph-name="uring" unicode="&#x16f;" 
d="M384 0q-59 0 -110.5 22.5t-90 61t-61 90.5t-22.5 111v408h76v-408q0 -42 16.5 -80t44.5 -66.5t65.5 -45.5t79.5 -17h494v617h76v-693h-568zM609 712h-148q-53 0 -90 37q-17 17 -27 40.5t-10 49.5v13q0 27 10 50t27 40.5t40.5 28t49.5 10.5h148q26 0 49.5 -10t41 -27.5
t27.5 -41t10 -50.5v-13q0 -26 -10 -49t-27.5 -40.5t-40.5 -27.5t-50 -10zM413 901q-20 -20 -20 -49v-13q0 -29 19.5 -48.5t48.5 -19.5h148q28 0 48.5 19.5t20.5 48.5v13q0 29 -20.5 49t-48.5 20h-148q-28 0 -48 -20z" />
    <glyph glyph-name="zacute" unicode="&#x17a;" horiz-adv-x="1090" 
d="M101 0v77l821 540h-819v76h966v-71l-831 -546h817v-76h-954zM697 904l-190 -189l-54 54l190 189z" />
    <glyph glyph-name="zdotaccent" unicode="&#x17c;" horiz-adv-x="1090" 
d="M484 900h132v-109h-132v109zM101 0v77l821 540h-819v76h966v-71l-831 -546h817v-76h-954z" />
    <glyph glyph-name="S" unicode="S" horiz-adv-x="1018" 
d="M761 0h-661v76h661q24 0 45 9t37 25t25 37t9 45t-9 45.5t-24.5 37.5t-37 25t-45.5 9h-507q-39 0 -74 15t-61.5 41t-41.5 61t-15 75t15 75.5t41 61.5t61 41.5t75 15.5h661v-76h-661q-25 0 -45.5 -9.5t-36 -25t-24.5 -36.5t-10 -45q4 -50 36 -84t80 -34h507q40 0 75 -15
t61 -41t41 -61t15 -75t-15 -75t-41 -61.5t-61 -41.5t-75 -15z" />
    <glyph glyph-name="R" unicode="R" horiz-adv-x="1124" 
d="M978 331q-50 -48 -122 -59l203 -272h-95l-201 269h-587v-269h-76v693h722q34 0 65.5 -9t57.5 -26q45 -29 72.5 -75.5t27.5 -101.5q0 -44 -17.5 -82.5t-49.5 -67.5zM176 345h650q28 0 54 10.5t45.5 29t31.5 43t12 53.5t-12 54t-32.5 43t-47 28.5t-55.5 10.5h-646v-272z
" />
    <glyph glyph-name="H" unicode="H" horiz-adv-x="1015" 
d="M950 693v-693h-77v335h-697v-335h-76v693h76v-282h697v282h77z" />
    <glyph glyph-name="I" unicode="I" horiz-adv-x="241" 
d="M100 0v693h76v-693h-76z" />
    <glyph glyph-name="O" unicode="O" horiz-adv-x="1248" 
d="M384 0q-59 0 -110.5 22.5t-90 61t-61 90t-22.5 110.5v125q0 58 22.5 110t61 90.5t90 61t110.5 22.5h514q59 0 111 -22.5t90.5 -61t61 -90.5t22.5 -110v-125q0 -59 -22.5 -110.5t-61 -90t-90.5 -61t-111 -22.5h-514zM176 409v-125q0 -43 16.5 -80.5t45 -66t66 -45
t80.5 -16.5h514q43 0 81 16.5t66.5 45t45 66t16.5 80.5v125q0 43 -16.5 80.5t-45 66t-66.5 45t-81 16.5h-514q-43 0 -80.5 -16.5t-66 -45t-45 -66t-16.5 -80.5z" />
    <glyph glyph-name="o" unicode="o" horiz-adv-x="1248" 
d="M384 0q-59 0 -110.5 22.5t-90 61t-61 90t-22.5 110.5v125q0 58 22.5 110t61 90.5t90 61t110.5 22.5h514q59 0 111 -22.5t90.5 -61t61 -90.5t22.5 -110v-125q0 -59 -22.5 -110.5t-61 -90t-90.5 -61t-111 -22.5h-514zM176 409v-125q0 -43 16.5 -80.5t45 -66t66 -45
t80.5 -16.5h514q43 0 81 16.5t66.5 45t45 66t16.5 80.5v125q0 43 -16.5 80.5t-45 66t-66.5 45t-81 16.5h-514q-43 0 -80.5 -16.5t-66 -45t-45 -66t-16.5 -80.5z" />
    <glyph glyph-name="T" unicode="T" horiz-adv-x="1031" 
d="M966 617h-395v-617h-76v617h-395v76h866v-76z" />
    <glyph glyph-name="N" unicode="N" horiz-adv-x="1110" 
d="M811 6q-14 6 -23.5 13t-23.5 24l-477 562q-9 11 -21 15.5t-26 4.5q-23 0 -43 -14t-21 -40v-571h-76v578l1 3q2 28 15 50.5t32.5 38.5t44 24t49.5 8q29 0 56.5 -11.5t47.5 -37.5l477 -562q9 -11 21.5 -16t25.5 -5q23 0 42 14.5t21 40.5v570h77v-577q-3 -28 -16 -51
t-32.5 -39.5t-43.5 -25.5t-49 -9q-31 0 -58 13z" />
    <glyph glyph-name="D" unicode="D" horiz-adv-x="1068" 
d="M100 693h619q59 0 110.5 -22.5t90 -61.5t61 -90.5t22.5 -109.5v-125q0 -59 -22.5 -110.5t-61.5 -90t-90.5 -61t-109.5 -22.5h-619v693zM927 411q0 42 -16.5 79.5t-45 65.5t-66.5 44.5t-80 16.5h-543v-541h545q42 0 79.5 16.5t65.5 45t44.5 66t16.5 80.5v127z" />
    <glyph glyph-name="E" unicode="E" horiz-adv-x="1062" 
d="M237 556q-29 -29 -45 -66.5t-16 -80.5v-25h793v-76h-793v-26q0 -42 16.5 -79.5t45 -65.5t66.5 -44.5t80 -16.5h585v-76h-585q-59 0 -110.5 22.5t-90 61.5t-61 90.5t-22.5 109.5v125q0 59 22.5 110.5t61.5 90t90.5 61t109.5 22.5h585v-76h-585q-43 0 -80.5 -16t-66.5 -45z
" />
    <glyph glyph-name="G" unicode="G" horiz-adv-x="1071" 
d="M722 0h-338q-58 0 -109.5 22.5t-90.5 61t-61.5 90t-22.5 110.5v125q0 58 22.5 109.5t61 90.5t90 61.5t110.5 22.5h420v-76h-420q-42 0 -80 -16.5t-66.5 -44.5t-45 -65.5t-16.5 -79.5v-127q0 -42 16.5 -80t44.5 -66.5t65.5 -45t79.5 -16.5h340q42 0 80 16.5t66.5 44.5
t45 65.5t16.5 79.5v29h-316v76h392v-103q0 -58 -22.5 -109.5t-61 -90.5t-90 -61.5t-110.5 -22.5z" />
    <glyph glyph-name="U" unicode="U" horiz-adv-x="1042" 
d="M184 83q-39 39 -61.5 90.5t-22.5 110.5v409h76v-409q0 -42 16.5 -80t44.5 -66.5t65.5 -45t80.5 -16.5h285q42 0 80 16.5t66.5 44.5t45 65.5t16.5 79.5v411h76v-409q0 -59 -22.5 -110.5t-61.5 -90.5q-38 -38 -89.5 -60.5t-110.5 -22.5h-283q-60 0 -111.5 22.5t-89.5 60.5z
" />
    <glyph glyph-name="C" unicode="C" horiz-adv-x="1034" 
d="M184 83q-39 39 -61.5 90.5t-22.5 110.5v125q0 58 22.5 110t61 90.5t90.5 61t111 22.5h584v-76h-584q-43 0 -81 -16.5t-66.5 -45t-45 -66t-16.5 -80.5v-125q0 -42 16.5 -80t44.5 -66.5t65.5 -45t80.5 -16.5h586v-76h-584q-59 0 -111 22.5t-90 60.5z" />
    <glyph glyph-name="P" unicode="P" horiz-adv-x="1111" 
d="M177 0h-77v693h728q43 0 82.5 -17t69.5 -46t48 -67.5t18 -81.5q0 -44 -18.5 -83t-49 -67.5t-71 -45t-84.5 -16.5h-646v-269zM825 345q29 0 55 10.5t45.5 29t31.5 43.5t13 53q-1 28 -13 53t-32 43.5t-46.5 29t-55.5 10.5h-646v-272h648z" />
    <glyph glyph-name="Q" unicode="Q" horiz-adv-x="1248" 
d="M384 0q-59 0 -110.5 22.5t-90 61t-61 90t-22.5 110.5v127q0 58 22.5 110t61 90.5t90 61t110.5 22.5h514q59 0 111 -22.5t90.5 -61t61 -90.5t22.5 -110v-127q0 -62 -24.5 -115.5t-66.5 -92.5h154v-76h-862zM384 76h522q42 0 78.5 17t63.5 45.5t43 66t16 79.5v127
q0 43 -16.5 80.5t-45 66t-66.5 45t-81 16.5h-514q-43 0 -80.5 -16.5t-66 -45t-45 -66t-16.5 -80.5v-127q0 -43 16.5 -80.5t45 -66t66 -45t80.5 -16.5z" />
    <glyph glyph-name="J" unicode="J" horiz-adv-x="1017" 
d="M184 83q-39 39 -61.5 90.5t-22.5 110.5v59h76v-59q0 -42 16.5 -80t44.5 -66.5t65.5 -45t80.5 -16.5h285q42 0 80 16.5t66.5 44.5t45 65.5t16.5 79.5v411h76v-409q0 -59 -22.5 -110.5t-61.5 -90.5q-38 -38 -89.5 -60.5t-110.5 -22.5h-283q-60 0 -111.5 22.5t-89.5 60.5z
" />
    <glyph glyph-name="L" unicode="L" horiz-adv-x="1033" 
d="M176 693v-408q0 -44 16 -81.5t45 -65.5q29 -29 66.5 -45.5t80.5 -16.5h584v-76h-584q-59 0 -110.5 22.5t-90.5 61.5q-38 38 -60.5 89.5t-22.5 111.5v408h76z" />
    <glyph glyph-name="F" unicode="F" horiz-adv-x="1033" 
d="M237 555q-29 -28 -45 -65.5t-16 -81.5v-27h747v-76h-747v-305h-76v408q0 60 22.5 111.5t60.5 89.5q39 39 90.5 61.5t110.5 22.5h584v-76h-584q-43 0 -80.5 -16.5t-66.5 -45.5z" />
    <glyph glyph-name="A" unicode="A" horiz-adv-x="1071" 
d="M923 610q38 -39 60.5 -90.5t22.5 -110.5v-409h-76v318h-754v-318h-76v409q0 59 22.5 110.5t61.5 90t90.5 61t109.5 22.5h338q59 0 110.5 -22.5t90.5 -60.5zM930 394v17q0 42 -16.5 79.5t-45 65.5t-66.5 44.5t-80 16.5h-340q-42 0 -79.5 -16.5t-65.5 -45t-44.5 -66
t-16.5 -80.5v-15h754z" />
    <glyph glyph-name="Z" unicode="Z" horiz-adv-x="1049" 
d="M218 0q-32 0 -56 13t-40.5 33.5t-24.5 46t-8 50.5q0 36 12.5 58.5t28.5 36.5q18 15 41 23l686 239q1 1 9 4t16 9t15 16.5t7 26.5q0 4 -1.5 14t-6.5 20.5t-16.5 18.5t-30.5 8h-753v76h760q42 0 66.5 -19.5t37 -44t16.5 -46.5t4 -27q0 -35 -10.5 -57t-22.5 -35
q-14 -15 -32 -23l-717 -251q-20 -9 -27 -23t-7 -28q0 -23 14.5 -42t40.5 -21h754v-76h-755z" />
    <glyph glyph-name="M" unicode="M" horiz-adv-x="1242" 
d="M1082 1v563q0 12 -6 22t-15 17t-19 10.5t-18 3.5h-9q-15 0 -31.5 -8t-25.5 -31q-4 -9 -30 -64q-11 -24 -28.5 -60.5t-43 -90t-60 -125.5t-79.5 -167q-13 -27 -33.5 -49t-46.5 -22h-16q-32 1 -50 18t-35 52l-241 506q-8 16 -13 22t-16 14q-10 5 -26 5h-12q-11 0 -20.5 -5
t-17.5 -13t-13.5 -17.5t-6.5 -17.5v-563h-76v567q0 24 10.5 45.5t28.5 39t41.5 28t49.5 12.5l16 1q14 0 25.5 -2.5t22.5 -6.5q11 -3 22.5 -11t21.5 -18t17.5 -20.5t10.5 -18.5q4 -6 6 -13l240 -504q2 -5 7 -13t11 -8h6q5 2 9.5 9t5.5 9l1 3l241 504q10 20 25.5 41.5
t38.5 33.5q13 7 28.5 11t32.5 4l16 -1q24 0 47 -11.5t41 -29t29.5 -39.5t12.5 -43v-569h-76z" />
    <glyph glyph-name="Y" unicode="Y" horiz-adv-x="1017" 
d="M491 0v220h-106q-60 0 -111.5 22.5t-89.5 60.5q-39 39 -61.5 90.5t-22.5 110.5v189h76v-189q0 -42 16.5 -80t44.5 -66.5t65.5 -45t80.5 -16.5h285q42 0 80 16.5t66.5 44.5t45 65.5t16.5 79.5v191h76v-189q0 -59 -22.5 -110.5t-61.5 -90.5q-38 -38 -89.5 -60.5
t-110.5 -22.5h-101v-220h-76z" />
    <glyph glyph-name="X.001" horiz-adv-x="833" 
 />
    <glyph glyph-name="X" unicode="X" horiz-adv-x="1017" 
d="M868 304q39 -39 61.5 -90.5t22.5 -110.5v-103h-76v103q0 42 -16.5 80t-44.5 66.5t-65.5 45t-80.5 16.5h-285q-42 0 -80 -16.5t-66.5 -44.5t-45 -65.5t-16.5 -79.5v-105h-76v103q0 59 22.5 110.5t61.5 90.5q13 13 27.5 24t30.5 21q-34 19 -58 45q-39 39 -61.5 90.5
t-22.5 110.5v98h76v-98q0 -42 16.5 -80t44.5 -66.5t65.5 -45t80.5 -16.5h293q41 0 77.5 16.5t63.5 45t43 66t16 78.5v100h76v-98q0 -59 -22.5 -110.5t-61.5 -90.5q-28 -28 -59 -45q17 -10 31 -21t28 -24z" />
    <glyph glyph-name="B" unicode="B" horiz-adv-x="1105" 
d="M924 358q38 -27 61.5 -69t23.5 -90q0 -42 -17 -78t-46 -63t-67 -42.5t-80 -15.5h-699v693h696q30 0 59.5 -7t55 -21.5t46.5 -35t34 -47.5q18 -36 18 -74t-16.5 -74t-47.5 -61zM176 398h624q23 0 47 7.5t43 22t31 34.5t12 45q0 26 -12 46.5t-31.5 34.5t-44 21.5t-49.5 7.5
h-620v-219zM923 152q10 21 10 46t-10.5 47t-28.5 39t-42 27t-51 10h-625v-245h625q38 0 72.5 21t49.5 55z" />
    <glyph glyph-name="g" unicode="g" horiz-adv-x="1062" 
d="M184 83q-39 39 -61.5 90.5t-22.5 110.5v125q0 58 22.5 110t61 90.5t90.5 61t111 22.5h584v-76h-584q-43 0 -81 -16.5t-66.5 -44.5t-45 -65.5t-16.5 -80.5v-126q0 -42 16.5 -80t44.5 -66.5t65.5 -45t80.5 -16.5h510v221h-447v76h523v-373h-584q-59 0 -111 22.5t-90 60.5z
" />
    <glyph glyph-name="K" unicode="K" horiz-adv-x="1078" 
d="M970 599q0 -79 -39.5 -144t-103.5 -102q64 -38 103.5 -103t39.5 -144v-106h-76v106q0 43 -16.5 81t-45 66t-66.5 44.5t-81 16.5h-509v-314h-76v701h76v-310h509q43 0 81 16.5t66.5 45t45 66t16.5 80.5v102h76v-102v0z" />
    <glyph glyph-name="V" unicode="V" horiz-adv-x="1172" 
d="M561 0h-23l-524 693h95l450 -596l455 596h96l-530 -693h-19z" />
    <glyph glyph-name="W" unicode="W" horiz-adv-x="1658" 
d="M1588 693v-412q0 -59 -22.5 -110.5t-61 -90t-90.5 -61t-111 -22.5h-213q-59 0 -110.5 22.5t-89.5 60.5q-14 14 -25.5 28.5t-20.5 30.5q-10 -16 -21 -30.5t-25 -28.5q-38 -38 -89.5 -60.5t-110.5 -22.5h-214q-59 0 -110.5 22.5t-90 61.5t-61 90.5t-22.5 109.5v412h76v-414
q0 -42 16.5 -79.5t45 -65.5t66.5 -44.5t80 -16.5h213q44 0 81.5 16t66.5 45t45 66.5t16 80.5v412h76v-412q0 -43 16 -80.5t45 -66.5t66.5 -45t80.5 -16h215q43 0 80.5 16.5t65.5 45t44.5 66t16.5 80.5v412h76z" />
    <glyph glyph-name="afii10017" unicode="&#x410;" horiz-adv-x="1071" 
d="M923 610q38 -39 60.5 -90.5t22.5 -110.5v-409h-76v318h-754v-318h-76v409q0 59 22.5 110.5t61.5 90t90.5 61t109.5 22.5h338q59 0 110.5 -22.5t90.5 -60.5zM930 394v17q0 42 -16.5 79.5t-45 65.5t-66.5 44.5t-80 16.5h-340q-42 0 -79.5 -16.5t-65.5 -45t-44.5 -66
t-16.5 -80.5v-15h754z" />
    <glyph glyph-name="afii10019" unicode="&#x412;" horiz-adv-x="1105" 
d="M924 358q38 -27 61.5 -69t23.5 -90q0 -42 -17 -78t-46 -63t-67 -42.5t-80 -15.5h-699v693h696q30 0 59.5 -7t55 -21.5t46.5 -35t34 -47.5q18 -36 18 -74t-16.5 -74t-47.5 -61zM176 398h624q23 0 47 7.5t43 22t31 34.5t12 45q0 26 -12 46.5t-31.5 34.5t-44 21.5t-49.5 7.5
h-620v-219zM923 152q10 21 10 46t-10.5 47t-28.5 39t-42 27t-51 10h-625v-245h625q38 0 72.5 21t49.5 55z" />
    <glyph glyph-name="afii10022" unicode="&#x415;" horiz-adv-x="1062" 
d="M237 556q-29 -29 -45 -66.5t-16 -80.5v-25h793v-76h-793v-26q0 -42 16.5 -79.5t45 -65.5t66.5 -44.5t80 -16.5h585v-76h-585q-59 0 -110.5 22.5t-90 61.5t-61 90.5t-22.5 109.5v125q0 59 22.5 110.5t61.5 90t90.5 61t109.5 22.5h585v-76h-585q-43 0 -80.5 -16t-66.5 -45z
" />
    <glyph glyph-name="afii10070" unicode="&#x435;" horiz-adv-x="1064" 
d="M100 483q0 44 18.5 82.5t49 66.5t70.5 44t85 16h448q44 0 83.5 -16.5t69.5 -45.5t48 -67.5t18 -82.5q0 -45 -18 -83.5t-49 -67t-71 -45t-85 -16.5h-591v-95q4 -26 17.5 -44t33.5 -30t45 -17.5t51 -5.5h614v-76h-619q-38 0 -76.5 12t-69.5 34t-51 54t-21 73v310zM187 533
q-11 -24 -11 -50v-139h595q28 0 54 10.5t46 29t31.5 43t11.5 53.5t-12 54t-32.5 43t-47 28.5t-55.5 10.5h-444q-45 0 -81.5 -22t-54.5 -61z" />
    <glyph glyph-name="afii10080" unicode="&#x43e;" horiz-adv-x="1248" 
d="M384 0q-59 0 -110.5 22.5t-90 61t-61 90t-22.5 110.5v125q0 58 22.5 110t61 90.5t90 61t110.5 22.5h514q59 0 111 -22.5t90.5 -61t61 -90.5t22.5 -110v-125q0 -59 -22.5 -110.5t-61 -90t-90.5 -61t-111 -22.5h-514zM176 409v-125q0 -43 16.5 -80.5t45 -66t66 -45
t80.5 -16.5h514q43 0 81 16.5t66.5 45t45 66t16.5 80.5v125q0 43 -16.5 80.5t-45 66t-66.5 45t-81 16.5h-514q-43 0 -80.5 -16.5t-66 -45t-45 -66t-16.5 -80.5z" />
    <glyph glyph-name="afii10082" unicode="&#x440;" horiz-adv-x="1111" 
d="M177 0h-77v693h728q43 0 82.5 -17t69.5 -46t48 -67.5t18 -81.5q0 -44 -18.5 -83t-49 -67.5t-71 -45t-84.5 -16.5h-646v-269zM825 345q29 0 55 10.5t45.5 29t31.5 43.5t13 53q-1 28 -13 53t-32 43.5t-46.5 29t-55.5 10.5h-646v-272h648z" />
    <glyph glyph-name="afii10034" unicode="&#x420;" horiz-adv-x="1111" 
d="M177 0h-77v693h728q43 0 82.5 -17t69.5 -46t48 -67.5t18 -81.5q0 -44 -18.5 -83t-49 -67.5t-71 -45t-84.5 -16.5h-646v-269zM825 345q29 0 55 10.5t45.5 29t31.5 43.5t13 53q-1 28 -13 53t-32 43.5t-46.5 29t-55.5 10.5h-646v-272h648z" />
    <glyph glyph-name="afii10035" unicode="&#x421;" horiz-adv-x="1034" 
d="M184 83q-39 39 -61.5 90.5t-22.5 110.5v125q0 58 22.5 110t61 90.5t90.5 61t111 22.5h584v-76h-584q-43 0 -81 -16.5t-66.5 -45t-45 -66t-16.5 -80.5v-125q0 -42 16.5 -80t44.5 -66.5t65.5 -45t80.5 -16.5h586v-76h-584q-59 0 -111 22.5t-90 60.5z" />
    <glyph glyph-name="afii10036" unicode="&#x422;" horiz-adv-x="1031" 
d="M966 617h-395v-617h-76v617h-395v76h866v-76z" />
    <glyph glyph-name="afii10084" unicode="&#x442;" horiz-adv-x="1508" 
d="M1159 693q58 0 110 -22.5t90.5 -61t61 -90.5t22.5 -111v-408h-76v408q0 42 -16.5 80t-44.5 66.5t-65.5 45.5t-79.5 17h-384v-617h-76v617h-525v-617h-76v693h1059v0z" />
    <glyph glyph-name="afii10032" unicode="&#x41e;" horiz-adv-x="1248" 
d="M384 0q-59 0 -110.5 22.5t-90 61t-61 90t-22.5 110.5v125q0 58 22.5 110t61 90.5t90 61t110.5 22.5h514q59 0 111 -22.5t90.5 -61t61 -90.5t22.5 -110v-125q0 -59 -22.5 -110.5t-61 -90t-90.5 -61t-111 -22.5h-514zM176 409v-125q0 -43 16.5 -80.5t45 -66t66 -45
t80.5 -16.5h514q43 0 81 16.5t66.5 45t45 66t16.5 80.5v125q0 43 -16.5 80.5t-45 66t-66.5 45t-81 16.5h-514q-43 0 -80.5 -16.5t-66 -45t-45 -66t-16.5 -80.5z" />
    <glyph glyph-name="afii10031" unicode="&#x41d;" horiz-adv-x="1015" 
d="M950 693v-693h-77v335h-697v-335h-76v693h76v-282h697v282h77z" />
    <glyph glyph-name="afii10030" unicode="&#x41c;" horiz-adv-x="1122" 
d="M580 -2h-28l-255 586q-11 17 -24.5 24.5t-34.5 7.5q-22 -1 -41.5 -15.5t-20.5 -37.5v-563h-76v567q0 4 1 8t1.5 8t2.5 9q13 41 46 69t79 31h24q20 0 38.5 -8t34.5 -20.5t27.5 -28.5t17.5 -32l206 -475l207 475q13 35 44 61.5t72 27.5h25q25 0 48 -11t41.5 -29t29.5 -40
t12 -45v-567h-76v563q-6 23 -18.5 37t-38.5 18l-8 1q-12 0 -22.5 -4.5t-18 -11.5t-12.5 -14t-7 -13l-252 -578h-24z" />
    <glyph glyph-name="afii10065" unicode="&#x430;" horiz-adv-x="1083" 
d="M322 0q-68 0 -123 34.5t-81 93.5q-18 39 -18 83q0 45 17.5 83.5t47.5 67t69.5 45t83.5 16.5h596v47q0 30 -12 57t-32.5 46.5t-47 31.5t-56.5 12h-503v76h503q46 0 87 -17.5t71 -48t48 -71t18 -86.5v-471zM240 323q-30 -19 -47 -48t-17 -64q0 -29 11.5 -53.5t31 -42.5
t45 -28.5t54.5 -10.5h596v271h-592q-23 0 -44 -6.5t-38 -17.5z" />
    <glyph glyph-name="afii10083" unicode="&#x441;" horiz-adv-x="1034" 
d="M184 83q-39 39 -61.5 90.5t-22.5 110.5v125q0 58 22.5 110t61 90.5t90.5 61t111 22.5h584v-76h-584q-43 0 -81 -16.5t-66.5 -45t-45 -66t-16.5 -80.5v-125q0 -42 16.5 -80t44.5 -66.5t65.5 -45t80.5 -16.5h586v-76h-584q-59 0 -111 22.5t-90 60.5z" />
    <glyph glyph-name="afii10087" unicode="&#x445;" 
d="M426 324q-72 0 -117.5 -10.5t-70.5 -34t-34 -60.5t-9 -90v-129h-65v135q0 97 34 148t114 72q-148 34 -148 231v114h65v-104q0 -57 9 -97t34.5 -65t70.5 -36.5t117 -11.5h311q72 0 117 11.5t70.5 36.5t34.5 65t9 97v104h65v-114q0 -197 -148 -231q80 -21 114 -72t34 -148
v-135h-65v129q0 53 -9 90t-34 60.5t-70.5 34t-117.5 10.5h-311z" />
    <glyph glyph-name="afii10039" unicode="&#x425;" horiz-adv-x="1017" 
d="M868 304q39 -39 61.5 -90.5t22.5 -110.5v-103h-76v103q0 42 -16.5 80t-44.5 66.5t-65.5 45t-80.5 16.5h-285q-42 0 -80 -16.5t-66.5 -44.5t-45 -65.5t-16.5 -79.5v-105h-76v103q0 59 22.5 110.5t61.5 90.5q13 13 27.5 24t30.5 21q-34 19 -58 45q-39 39 -61.5 90.5
t-22.5 110.5v98h76v-98q0 -42 16.5 -80t44.5 -66.5t65.5 -45t80.5 -16.5h293q41 0 77.5 16.5t63.5 45t43 66t16 78.5v100h76v-98q0 -59 -22.5 -110.5t-61.5 -90.5q-28 -28 -59 -45q17 -10 31 -21t28 -24z" />
    <glyph glyph-name="afii10049" unicode="&#x42f;" horiz-adv-x="1124" 
d="M167 331q-32 29 -49.5 67.5t-17.5 82.5q0 55 27.5 101.5t72.5 75.5q26 17 57.5 26t65.5 9h722v-693h-76v269h-587l-201 -269h-95l203 272q-72 11 -122 59zM969 617h-646q-29 0 -55.5 -10.5t-47 -28.5t-32.5 -43t-12 -54t12 -53.5t31.5 -43t45.5 -29t54 -10.5h650v272z
" />
    <glyph glyph-name="afii10028" unicode="&#x41a;" horiz-adv-x="1040" 
d="M970 599q0 -79 -39.5 -144t-103.5 -102q64 -38 103.5 -103t39.5 -144v-106h-76v106q0 43 -16.5 81t-45 66t-66.5 44.5t-81 16.5h-509v-314h-76v701h76v-310h509q43 0 81 16.5t66.5 45t45 66t16.5 80.5v102h76v-102v0z" />
    <glyph glyph-name="afii10076" unicode="&#x43a;" horiz-adv-x="833" 
 />
    <glyph glyph-name="afii10081" unicode="&#x43f;" horiz-adv-x="1017" 
d="M668 693q58 0 110 -22.5t90.5 -61t61 -90.5t22.5 -111v-408h-76v408q0 42 -16.5 80t-44.5 66.5t-65.5 45.5t-79.5 17h-494v-617h-76v693h568z" />
    <glyph glyph-name="afii10033" unicode="&#x41f;" horiz-adv-x="833" 
 />
    <glyph glyph-name="afii10085" unicode="&#x443;" horiz-adv-x="1017" 
d="M952 693v-409q0 -59 -22.5 -110.5t-61 -90t-90 -61t-110.5 -22.5h-514v76h514q43 0 80.5 16.5t66 45t45 66t16.5 80.5v16h-492q-59 0 -110.5 22.5t-90 61t-61 90.5t-22.5 111v108h76v-108q0 -42 16.5 -80t44.5 -66.5t65.5 -45.5t79.5 -17h494v317h76z" />
    <glyph glyph-name="afii10023" unicode="&#x401;" horiz-adv-x="1062" 
d="M237 556q-29 -29 -45 -66.5t-16 -80.5v-25h793v-76h-793v-26q0 -42 16.5 -79.5t45 -65.5t66.5 -44.5t80 -16.5h585v-76h-585q-59 0 -110.5 22.5t-90 61.5t-61 90.5t-22.5 109.5v125q0 59 22.5 110.5t61.5 90t90.5 61t109.5 22.5h585v-76h-585q-43 0 -80.5 -16t-66.5 -45z
M416 784v90h86v-90h-86zM706 784v90h86v-90h-86z" />
    <glyph glyph-name="afii10056" unicode="&#x407;" horiz-adv-x="833" 
 />
    <glyph glyph-name="afii10071" unicode="&#x451;" horiz-adv-x="1064" 
d="M100 483q0 44 18.5 82.5t49 66.5t70.5 44t85 16h448q44 0 83.5 -16.5t69.5 -45.5t48 -67.5t18 -82.5q0 -45 -18 -83.5t-49 -67t-71 -45t-85 -16.5h-591v-95q4 -26 17.5 -44t33.5 -30t45 -17.5t51 -5.5h614v-76h-619q-38 0 -76.5 12t-69.5 34t-51 54t-21 73v310zM187 533
q-11 -24 -11 -50v-139h595q28 0 54 10.5t46 29t31.5 43t11.5 53.5t-12 54t-32.5 43t-47 28.5t-55.5 10.5h-444q-45 0 -81.5 -22t-54.5 -61zM344 790v90h86v-90h-86zM634 790v90h86v-90h-86z" />
    <glyph glyph-name="afii10054" unicode="&#x405;" horiz-adv-x="1018" 
d="M761 0h-661v76h661q24 0 45 9t37 25t25 37t9 45t-9 45.5t-24.5 37.5t-37 25t-45.5 9h-507q-39 0 -74 15t-61.5 41t-41.5 61t-15 75t15 75.5t41 61.5t61 41.5t75 15.5h661v-76h-661q-25 0 -45.5 -9.5t-36 -25t-24.5 -36.5t-10 -45q4 -50 36 -84t80 -34h507q40 0 75 -15
t61 -41t41 -61t15 -75t-15 -75t-41 -61.5t-61 -41.5t-75 -15z" />
    <glyph glyph-name="afii10102" unicode="&#x455;" horiz-adv-x="1018" 
d="M761 0h-661v76h661q24 0 45 9t37 25t25 37t9 45t-9 45.5t-24.5 37.5t-37 25t-45.5 9h-507q-39 0 -74 15t-61.5 41t-41.5 61t-15 75t15 75.5t41 61.5t61 41.5t75 15.5h661v-76h-661q-25 0 -45.5 -9.5t-36 -25t-24.5 -36.5t-10 -45q4 -50 36 -84t80 -34h507q40 0 75 -15
t61 -41t41 -61t15 -75t-15 -75t-41 -61.5t-61 -41.5t-75 -15z" />
    <glyph glyph-name="afii10105" unicode="&#x458;" horiz-adv-x="1060" 
d="M224 693h728v-409q0 -59 -22.5 -110.5t-61.5 -90.5q-38 -38 -89.5 -60.5t-110.5 -22.5h-283q-60 0 -111.5 22.5t-89.5 60.5q-39 39 -61.5 90.5t-22.5 110.5v59h76v-59q0 -42 16.5 -80t44.5 -66.5t65.5 -45t80.5 -16.5h285q42 0 80 16.5t66.5 44.5t45 65.5t16.5 79.5v335
h-652v76z" />
    <glyph glyph-name="afii10104" unicode="&#x457;" horiz-adv-x="465" 
d="M46 790v90h86v-90h-86zM336 790v90h86v-90h-86z" />
    <glyph glyph-name="afii10061" unicode="&#x40c;" horiz-adv-x="1040" 
d="M970 599q0 -79 -39.5 -144t-103.5 -102q64 -38 103.5 -103t39.5 -144v-106h-76v106q0 43 -16.5 81t-45 66t-66.5 44.5t-81 16.5h-509v-314h-76v701h76v-310h509q43 0 81 16.5t66.5 45t45 66t16.5 80.5v102h76v-102v0zM642 898l-190 -189l-54 54l190 189z" />
    <glyph glyph-name="afii10079" unicode="&#x43d;" horiz-adv-x="1015" 
d="M950 693v-693h-77v335h-697v-335h-76v693h76v-282h697v282h77z" />
    <glyph glyph-name="AE" unicode="&#xc6;" horiz-adv-x="2133" 
d="M923 610q38 -39 60.5 -90.5t22.5 -110.5v-409h-76v318h-754v-318h-76v409q0 59 22.5 110.5t61.5 90t90.5 61t109.5 22.5h338q59 0 110.5 -22.5t90.5 -60.5zM930 394v17q0 42 -16.5 79.5t-45 65.5t-66.5 44.5t-80 16.5h-340q-42 0 -79.5 -16.5t-65.5 -45t-44.5 -66
t-16.5 -80.5v-15h754zM1308 556q-29 -29 -45 -66.5t-16 -80.5v-25h793v-76h-793v-26q0 -42 16.5 -79.5t45 -65.5t66.5 -44.5t80 -16.5h585v-76h-585q-59 0 -110.5 22.5t-90 61.5t-61 90.5t-22.5 109.5v125q0 59 22.5 110.5t61.5 90t90.5 61t109.5 22.5h585v-76h-585
q-43 0 -80.5 -16t-66.5 -45z" />
    <glyph glyph-name="fl" unicode="&#xfb02;" horiz-adv-x="2002" 
d="M237 555q-29 -28 -45 -65.5t-16 -81.5v-27h747v-76h-747v-305h-76v408q0 60 22.5 111.5t60.5 89.5q39 39 90.5 61.5t110.5 22.5h584v-76h-584q-43 0 -80.5 -16.5t-66.5 -45.5zM1209 693v-408q0 -44 16 -81.5t45 -65.5q29 -29 66.5 -45.5t80.5 -16.5h584v-76h-584
q-59 0 -110.5 22.5t-90.5 61.5q-38 38 -60.5 89.5t-22.5 111.5v408h76z" />
    <glyph glyph-name="Lacute" unicode="&#x139;" horiz-adv-x="1033" 
d="M176 693v-408q0 -44 16 -81.5t45 -65.5q29 -29 66.5 -45.5t80.5 -16.5h584v-76h-584q-59 0 -110.5 22.5t-90.5 61.5q-38 38 -60.5 89.5t-22.5 111.5v408h76zM638 905l-190 -189l-54 54l190 189z" />
    <glyph glyph-name="Lcommaaccent" unicode="&#x13b;" horiz-adv-x="1033" 
d="M176 693v-408q0 -44 16 -81.5t45 -65.5q29 -29 66.5 -45.5t80.5 -16.5h584v-76h-584q-59 0 -110.5 22.5t-90.5 61.5q-38 38 -60.5 89.5t-22.5 111.5v408h76zM438 -151l87 186l69 -32l-87 -186z" />
    <glyph glyph-name="lacute" unicode="&#x13a;" horiz-adv-x="969" 
d="M176 693v-408q0 -44 16 -81.5t45 -65.5q29 -29 66.5 -45.5t80.5 -16.5h584v-76h-584q-59 0 -110.5 22.5t-90.5 61.5q-38 38 -60.5 89.5t-22.5 111.5v408h76zM606 904l-190 -189l-54 54l190 189z" />
    <glyph glyph-name="lcommaaccent" unicode="&#x13c;" horiz-adv-x="969" 
d="M176 693v-408q0 -44 16 -81.5t45 -65.5q29 -29 66.5 -45.5t80.5 -16.5h584v-76h-584q-59 0 -110.5 22.5t-90.5 61.5q-38 38 -60.5 89.5t-22.5 111.5v408h76zM406 -151l87 186l69 -32l-87 -186z" />
    <glyph glyph-name="Tcaron" unicode="&#x164;" horiz-adv-x="1031" 
d="M966 617h-395v-617h-76v617h-395v76h866v-76zM799 965l33 -69l-317 -150l-317 150l33 69l284 -135z" />
    <glyph glyph-name="tcaron" unicode="&#x165;" horiz-adv-x="1329" 
d="M838 520h-662v-235q0 -44 16 -81.5t45 -65.5q29 -29 66.5 -45.5t80.5 -16.5h584v-76h-584q-59 0 -110.5 22.5t-90.5 61.5q-38 38 -60.5 89.5t-22.5 111.5v408h76v-97h662v-76zM1123 477l61 223h85l-61 -223h-85z" />
    <glyph glyph-name="guillemotleft" unicode="&#xab;" horiz-adv-x="0" 
 />
    <glyph glyph-name="guilsinglleft" unicode="&#x2039;" horiz-adv-x="0" 
 />
    <glyph glyph-name="guilsinglright" unicode="&#x203a;" horiz-adv-x="0" 
 />
    <glyph glyph-name="guillemotright" unicode="&#xbb;" horiz-adv-x="0" 
 />
    <glyph glyph-name="registered" unicode="&#xae;" horiz-adv-x="0" 
 />
    <glyph glyph-name="registered.alt" horiz-adv-x="0" 
 />
    <glyph glyph-name="trademark" unicode="&#x2122;" horiz-adv-x="2153" 
 />
    <glyph glyph-name="trademark.alt" horiz-adv-x="2153" 
 />
    <glyph glyph-name="afii10026" unicode="&#x418;" horiz-adv-x="1110" 
d="M299 6q-27 -13 -58 -13q-26 0 -49.5 9t-43 25.5t-32.5 39.5t-16 51v577h77v-570q2 -26 21 -40.5t42 -14.5q13 0 25.5 5t21.5 16l477 562q20 26 47.5 37.5t56.5 11.5q25 0 49.5 -8t44 -24t32.5 -38.5t15 -50.5l1 -3v-578h-76v571q-1 26 -21 40t-43 14q-14 0 -26 -4.5
t-21 -15.5l-477 -562q-14 -17 -23.5 -24t-23.5 -13z" />
    <glyph glyph-name="afii10025" unicode="&#x417;" horiz-adv-x="1142" 
d="M1039 346q22 -14 27.5 -32t5.5 -39v-148q-2 -19 -10 -38.5t-25 -39.5q-25 -27 -56.5 -38t-72.5 -11h-641q-10 0 -24 1.5t-29 5t-30 9t-27 14.5q-57 42 -57 120v38h76v-38q1 -21 5 -33.5t18 -23.5q12 -10 27 -13t29 -4h653q20 0 33.5 3t22.5 8q12 7 22 17t10 27v143
q0 20 -15 27t-31 7h-715v77h716q13 0 29 8.5t16 25.5v140q-6 27 -30 42.5t-51 15.5h-659q-13 0 -28.5 -4t-26.5 -12q-15 -11 -20 -25.5t-5 -32.5v-38h-76v42q0 35 13.5 65t39.5 50q23 17 54 24t60 7h642q31 -1 59.5 -11t50.5 -27t36 -39.5t17 -48.5v-157q-1 -14 -3.5 -22.5
t-6.5 -15t-10 -12.5t-13 -14z" />
    <glyph glyph-name="afii10097" unicode="&#x44f;" horiz-adv-x="1120" 
d="M167 331q-32 29 -49.5 67.5t-17.5 82.5q0 55 27.5 101.5t72.5 75.5q26 17 57.5 26t65.5 9h722v-693h-76v269h-587l-201 -269h-95l203 272q-72 11 -122 59zM969 617h-646q-29 0 -55.5 -10.5t-47 -28.5t-32.5 -43t-12 -54t12 -53.5t31.5 -43t45.5 -29t54 -10.5h650v272z
" />
    <glyph glyph-name="afii10094" unicode="&#x44c;" horiz-adv-x="1126" 
d="M177 424h646q44 0 84.5 -16.5t71 -45t49 -67.5t18.5 -83q0 -43 -18 -81.5t-48 -67.5t-69.5 -46t-82.5 -17h-728v693h77v-269zM177 348v-272h646q29 0 55.5 10.5t46.5 29t32 43t13 53.5q-1 28 -13 53t-31.5 43.5t-45.5 29t-55 10.5h-648z" />
    <glyph glyph-name="afii10046" unicode="&#x42c;" horiz-adv-x="1111" 
d="M177 424h646q44 0 84.5 -16.5t71 -45t49 -67.5t18.5 -83q0 -43 -18 -81.5t-48 -67.5t-69.5 -46t-82.5 -17h-728v693h77v-269zM177 348v-272h646q29 0 55.5 10.5t46.5 29t32 43t13 53.5q-1 28 -13 53t-31.5 43.5t-45.5 29t-55 10.5h-648z" />
    <glyph glyph-name="afii10045" unicode="&#x42b;" horiz-adv-x="1239" 
d="M177 424h646q44 0 84.5 -16.5t71 -45t49 -67.5t18.5 -83q0 -43 -18 -81.5t-48 -67.5t-69.5 -46t-82.5 -17h-728v693h77v-269zM177 348v-272h646q29 0 55.5 10.5t46.5 29t32 43t13 53.5q-1 28 -13 53t-31.5 43.5t-45.5 29t-55 10.5h-648zM1090 0v693h76v-693h-76z" />
    <glyph glyph-name="afii10020" unicode="&#x413;" horiz-adv-x="859" 
d="M100 0v409q0 58 22.5 110t61 90.5t90 61t110.5 22.5h514v-76h-514q-43 0 -80.5 -16.5t-66 -45t-45 -66t-16.5 -80.5v-409h-76z" />
    <glyph glyph-name="afii10027" unicode="&#x419;" horiz-adv-x="1110" 
d="M299 6q-27 -13 -58 -13q-26 0 -49.5 9t-43 25.5t-32.5 39.5t-16 51v577h77v-570q2 -26 21 -40.5t42 -14.5q13 0 25.5 5t21.5 16l477 562q20 26 47.5 37.5t56.5 11.5q25 0 49.5 -8t44 -24t32.5 -38.5t15 -50.5l1 -3v-578h-76v571q-1 26 -21 40t-43 14q-14 0 -26 -4.5
t-21 -15.5l-477 -562q-14 -17 -23.5 -24t-23.5 -13zM351 834v-13q0 -29 19.5 -48.5t48.5 -19.5h168q28 0 48.5 19.5t20.5 48.5v13h59v-13q0 -26 -10 -49t-27.5 -40.5t-40.5 -27.5t-50 -10h-168q-53 0 -90 37q-17 17 -27 40.5t-10 49.5v13h59z" />
    <glyph glyph-name="quotedbl" unicode="&#x22;" horiz-adv-x="365" 
d="M91 510v183h78v-183h-78zM231 510v183h78v-183h-78z" />
    <glyph glyph-name="exclam" unicode="!" horiz-adv-x="389" 
d="M236 700v-490h-76v490h76zM236 124v-124h-76v124h76z" />
    </font>
</defs>
</svg>
